<svg width="51" height="51" viewBox="0 0 51 51" fill="none" xmlns="http://www.w3.org/2000/svg">
<g clip-path="url(#clip0_783_3453)">
<path d="M21.3857 27.015H29.6147M25.5002 22.7206V13.3432M30.383 23.1088V28.9682L28.4299 30.9213H22.5705L20.6174 28.9682V23.1088C20.6174 21.2897 20.3564 20.7506 17.7293 17.3051C16.4779 15.6635 15.7346 13.6136 15.7346 11.3901C15.7346 5.99676 20.1069 1.62451 25.5002 1.62451C30.8935 1.62451 35.2658 5.99676 35.2658 11.3901C35.2658 13.6136 34.5225 15.6635 33.2711 17.3051C30.644 20.7507 30.383 21.2897 30.383 23.1088Z" stroke="#489157" stroke-width="1.95313" stroke-miterlimit="22.9256" stroke-linecap="round" stroke-linejoin="round"/>
<path d="M27.4533 11.3901L25.5002 13.3432L23.547 11.3901M21.0181 23.1088H29.9822M9.38683 11.3901H11.34M11.5456 3.3335L13.2371 4.31005M11.5456 19.4467L13.2371 18.4702M41.6134 11.3901H39.6603M39.4546 3.3335L37.7632 4.31005M39.4546 19.4467L37.7632 18.4702M2.45327 42.3472V38.8559C7.7761 38.8559 10.6148 36.8538 13.1778 35.8736C18.4972 33.8392 22.5878 35.4667 25.5002 40.6194M25.5002 40.6194C28.4125 35.4667 32.5031 33.8392 37.8225 35.8736C40.3854 36.8538 43.2242 38.8559 48.547 38.8559V42.3472M25.5002 40.6194V43.6595M25.5002 44.6361C26.2295 43.3727 27.3763 42.8355 28.8343 42.8355H49.5235V47.23H28.7763C28.3561 48.6418 27.0485 49.6714 25.5002 49.6714C23.9518 49.6714 22.6443 48.6418 22.224 47.23H1.47681V42.8355H22.166C23.624 42.8355 24.7708 43.3727 25.5002 44.6361Z" stroke="#489157" stroke-width="1.95313" stroke-miterlimit="22.9256" stroke-linecap="round" stroke-linejoin="round"/>
</g>
<defs>
<clipPath id="clip0_783_3453">
<rect width="50" height="50" fill="white" transform="translate(0.5 0.647949)"/>
</clipPath>
</defs>
</svg>
