<svg width="51" height="51" viewBox="0 0 51 51" fill="none" xmlns="http://www.w3.org/2000/svg">
<path d="M25.7427 21.3167C25.5355 21.3167 25.3368 21.2343 25.1902 21.0878C25.0437 20.9413 24.9614 20.7426 24.9614 20.5354V15.8479C24.9614 15.6407 25.0437 15.442 25.1902 15.2955C25.3368 15.149 25.5355 15.0667 25.7427 15.0667C25.9499 15.0667 26.1486 15.149 26.2951 15.2955C26.4416 15.442 26.5239 15.6407 26.5239 15.8479V20.5354C26.5239 20.7426 26.4416 20.9413 26.2951 21.0878C26.1486 21.2343 25.9499 21.3167 25.7427 21.3167Z" fill="#4B64BF"/>
<path d="M36.6808 46.6314C36.5075 46.6316 36.3391 46.5741 36.202 46.468C36.065 46.3619 35.9671 46.2133 35.9237 46.0455C35.8804 45.8777 35.8941 45.7002 35.9626 45.5411C36.0312 45.3819 36.1507 45.25 36.3024 45.1662C39.7287 43.2747 42.5855 40.4996 44.5755 37.1295C46.5655 33.7595 47.616 29.9177 47.6176 26.004C47.6176 25.5017 47.6004 24.9939 47.5664 24.4945C47.5582 24.3915 47.5705 24.2879 47.6026 24.1896C47.6348 24.0914 47.6861 24.0005 47.7536 23.9222C47.8211 23.8439 47.9034 23.7798 47.9959 23.7336C48.0883 23.6874 48.1891 23.6599 48.2922 23.6529C48.3953 23.6459 48.4988 23.6594 48.5967 23.6927C48.6945 23.726 48.7848 23.7783 48.8623 23.8467C48.9398 23.9152 49.0029 23.9983 49.0481 24.0913C49.0932 24.1843 49.1194 24.2853 49.1252 24.3885C49.1617 24.923 49.1801 25.4665 49.1801 26.004C49.1784 30.197 48.0531 34.313 45.9212 37.9236C43.7892 41.5342 40.7286 44.5074 37.0578 46.534C36.9425 46.5979 36.8128 46.6315 36.6809 46.6314H36.6808Z" fill="#DFDFDF"/>
<path d="M43.7114 33.8167H39.0239C38.8167 33.8167 38.618 33.7343 38.4715 33.5878C38.325 33.4413 38.2427 33.2426 38.2427 33.0354C38.2427 32.8282 38.325 32.6295 38.4715 32.483C38.618 32.3365 38.8167 32.2542 39.0239 32.2542H43.7114C43.9186 32.2542 44.1173 32.3365 44.2639 32.483C44.4104 32.6295 44.4927 32.8282 44.4927 33.0354C44.4927 33.2426 44.4104 33.4413 44.2639 33.5878C44.1173 33.7343 43.9186 33.8167 43.7114 33.8167Z" fill="#F9DBB7"/>
<path d="M37.4615 36.9417H31.9928V35.3792C31.9928 35.172 31.9104 34.9732 31.7639 34.8267C31.6174 34.6802 31.4187 34.5979 31.2115 34.5979C31.0043 34.5979 30.8056 34.6802 30.6591 34.8267C30.5126 34.9732 30.4303 35.172 30.4303 35.3792V36.9417H24.9615C24.7543 36.9417 24.5556 37.024 24.4091 37.1705C24.2626 37.317 24.1803 37.5157 24.1803 37.7229C24.1803 37.9301 24.2626 38.1288 24.4091 38.2753C24.5556 38.4218 24.7543 38.5042 24.9615 38.5042H26.6438C27.1342 41.0983 28.3302 43.507 30.1005 45.4657C29.9046 45.6377 29.7032 45.8047 29.4963 45.9666L26.8256 48.0437C26.7446 48.1067 26.6768 48.185 26.6261 48.2742C26.5754 48.3634 26.5427 48.4617 26.53 48.5635C26.5173 48.6653 26.5247 48.7686 26.5519 48.8676C26.5791 48.9665 26.6256 49.0591 26.6886 49.1401C26.7515 49.2211 26.8299 49.2889 26.9191 49.3396C27.0083 49.3903 27.1066 49.4229 27.2084 49.4357C27.3102 49.4484 27.4135 49.4409 27.5124 49.4137C27.6114 49.3865 27.704 49.3401 27.7849 49.2771L30.4555 47.2C30.7158 46.9975 30.9678 46.7873 31.2115 46.5694C31.4555 46.7869 31.7075 46.9971 31.9674 47.1999L34.6381 49.277C34.8016 49.4042 35.009 49.4613 35.2146 49.4356C35.4202 49.4099 35.6072 49.3036 35.7344 49.14C35.8616 48.9765 35.9187 48.7691 35.893 48.5635C35.8673 48.3579 35.761 48.1709 35.5974 48.0437L32.9267 45.9666C32.7194 45.8052 32.518 45.6383 32.3225 45.4657C34.0928 43.507 35.2888 41.0983 35.7792 38.5042H37.4615C37.6687 38.5042 37.8674 38.4218 38.0139 38.2753C38.1604 38.1288 38.2428 37.9301 38.2428 37.7229C38.2428 37.5157 38.1604 37.317 38.0139 37.1705C37.8674 37.024 37.6687 36.9417 37.4615 36.9417ZM31.2115 44.3638C29.7274 42.7026 28.7025 40.6828 28.238 38.5042H34.185C33.7205 40.6828 32.6956 42.7026 31.2115 44.3638ZM20.2108 37.4152C20.1506 37.2747 20.0504 37.1549 19.9228 37.0707C19.7952 36.9866 19.6456 36.9417 19.4928 36.9417C19.3399 36.9417 19.1903 36.9866 19.0627 37.0707C18.9351 37.1549 18.8349 37.2747 18.7747 37.4152L14.0872 48.3527C14.0076 48.5428 14.0064 48.7566 14.0837 48.9476C14.1611 49.1385 14.3107 49.2912 14.5001 49.3724C14.6895 49.4536 14.9033 49.4566 15.095 49.3809C15.2866 49.3052 15.4406 49.1568 15.5233 48.9681L16.3258 47.0958C16.3397 47.0965 16.3536 47.0979 16.3678 47.0979H22.6178C22.6319 47.0979 22.6458 47.0965 22.6597 47.0958L23.4622 48.9681C23.545 49.1568 23.6989 49.3052 23.8905 49.3809C24.0822 49.4566 24.296 49.4536 24.4854 49.3724C24.6748 49.2912 24.8244 49.1385 24.9018 48.9476C24.9791 48.7566 24.9779 48.5428 24.8983 48.3527L20.2108 37.4152ZM16.9945 45.5354L19.4928 39.7062L21.991 45.5354H16.9945Z" fill="#576CD3"/>
<path d="M3.30115 23.6606C3.18947 23.6606 3.07909 23.6368 2.97742 23.5906C2.87575 23.5444 2.78516 23.4769 2.71173 23.3928C2.63831 23.3086 2.58375 23.2097 2.55174 23.1028C2.51973 22.9958 2.511 22.8832 2.52615 22.7725C3.0138 19.2725 4.28621 15.928 6.24828 12.989C8.21035 10.0499 10.8113 7.59231 13.8568 5.79988C14.0353 5.69466 14.2483 5.66466 14.4489 5.71648C14.6495 5.7683 14.8214 5.89769 14.9266 6.0762C15.0318 6.2547 15.0618 6.46769 15.01 6.66831C14.9582 6.86893 14.8288 7.04075 14.6503 7.14597C11.8078 8.81872 9.38013 11.1123 7.5487 13.8552C5.71727 16.5981 4.52945 19.7195 4.074 22.986C4.04822 23.1728 3.95578 23.3439 3.81373 23.4679C3.67168 23.5919 3.48959 23.6603 3.30105 23.6606H3.30115ZM13.2419 45.6844C13.0886 45.6845 12.9387 45.6393 12.811 45.5544C10.1819 43.8161 7.93076 41.5649 6.19245 38.9358C6.13487 38.8503 6.09478 38.7543 6.07449 38.6532C6.05421 38.5521 6.05412 38.448 6.07424 38.3469C6.09436 38.2458 6.13429 38.1497 6.19173 38.0641C6.24917 37.9785 6.32298 37.9051 6.40891 37.8482C6.49484 37.7912 6.59119 37.7519 6.6924 37.7323C6.79362 37.7128 6.8977 37.7135 6.99865 37.7344C7.0996 37.7552 7.19542 37.7959 7.28059 37.854C7.36576 37.912 7.43859 37.9864 7.4949 38.0727C9.11782 40.5273 11.2195 42.629 13.6741 44.2519C13.8141 44.3447 13.9205 44.4801 13.9776 44.638C14.0346 44.796 14.0392 44.9682 13.9907 45.129C13.9422 45.2898 13.8431 45.4306 13.7083 45.5307C13.5734 45.6308 13.4098 45.6847 13.2419 45.6845V45.6844ZM45.2746 15.2967C45.1385 15.2968 45.0047 15.2614 44.8865 15.1939C44.7683 15.1265 44.6698 15.0293 44.6008 14.912C42.7097 11.7089 40.0379 9.03706 36.8348 7.14597C36.6579 7.03997 36.5301 6.86832 36.4793 6.66846C36.4284 6.4686 36.4587 6.25675 36.5634 6.07909C36.6681 5.90144 36.8388 5.7724 37.0383 5.72011C37.2378 5.66782 37.4499 5.69653 37.6283 5.79998C41.0593 7.82558 43.9212 10.6875 45.9468 14.1185C46.0167 14.2371 46.054 14.3721 46.055 14.5098C46.056 14.6475 46.0205 14.7829 45.9523 14.9025C45.8841 15.0221 45.7854 15.1215 45.6664 15.1907C45.5474 15.2599 45.4123 15.2965 45.2746 15.2967Z" fill="#DFDFDF"/>
<path d="M10.1177 26.0042H9.33643C9.12923 26.0042 8.93051 25.9218 8.784 25.7753C8.63749 25.6288 8.55518 25.4301 8.55518 25.2229C8.55518 25.0157 8.63749 24.817 8.784 24.6705C8.93051 24.524 9.12923 24.4417 9.33643 24.4417H10.1177C10.3249 24.4417 10.5236 24.524 10.6701 24.6705C10.8166 24.817 10.8989 25.0157 10.8989 25.2229C10.8989 25.4301 10.8166 25.6288 10.6701 25.7753C10.5236 25.9218 10.3249 26.0042 10.1177 26.0042ZM14.0239 26.0042H13.2427C13.0355 26.0042 12.8368 25.9218 12.6902 25.7753C12.5437 25.6288 12.4614 25.4301 12.4614 25.2229C12.4614 25.0157 12.5437 24.817 12.6902 24.6705C12.8368 24.524 13.0355 24.4417 13.2427 24.4417H14.0239C14.2311 24.4417 14.4298 24.524 14.5764 24.6705C14.7229 24.817 14.8052 25.0157 14.8052 25.2229C14.8052 25.4301 14.7229 25.6288 14.5764 25.7753C14.4298 25.9218 14.2311 26.0042 14.0239 26.0042ZM17.9302 26.0042H17.1489C16.9417 26.0042 16.743 25.9218 16.5965 25.7753C16.45 25.6288 16.3677 25.4301 16.3677 25.2229C16.3677 25.0157 16.45 24.817 16.5965 24.6705C16.743 24.524 16.9417 24.4417 17.1489 24.4417H17.9302C18.1374 24.4417 18.3361 24.524 18.4826 24.6705C18.6291 24.817 18.7114 25.0157 18.7114 25.2229C18.7114 25.4301 18.6291 25.6288 18.4826 25.7753C18.3361 25.9218 18.1374 26.0042 17.9302 26.0042Z" fill="#BDECDC"/>
<path d="M48.2928 23.6622C48.0861 23.6763 47.8935 23.7719 47.7573 23.928C47.6211 24.0841 47.5524 24.2879 47.5665 24.4946C47.6005 24.994 47.6176 25.5018 47.6176 26.0041C47.616 29.9178 46.5655 33.7596 44.5755 37.1296C42.5855 40.4996 39.7287 43.2747 36.3024 45.1662C36.2126 45.2158 36.1334 45.2826 36.0694 45.3628C36.0054 45.443 35.9579 45.535 35.9294 45.6336C35.901 45.7322 35.8923 45.8354 35.9037 45.9374C35.9152 46.0394 35.9466 46.1381 35.9962 46.2279C36.0458 46.3177 36.1126 46.3969 36.1928 46.4609C36.273 46.5249 36.365 46.5724 36.4636 46.6009C36.5622 46.6293 36.6654 46.638 36.7674 46.6266C36.8694 46.6151 36.9681 46.5837 37.0579 46.5341C40.7287 44.5075 43.7893 41.5343 45.9212 37.9237C48.0531 34.3131 49.1785 30.1971 49.1801 26.0041C49.1801 25.4666 49.1617 24.9231 49.1253 24.3886C49.1185 24.2862 49.0916 24.1861 49.046 24.0941C49.0005 24.0021 48.9372 23.92 48.8599 23.8525C48.7826 23.785 48.6927 23.7335 48.5953 23.7008C48.498 23.6682 48.3952 23.655 48.2928 23.6622ZM33.0027 29.3579C32.9026 29.458 32.8316 29.5835 32.7972 29.7209L32.016 32.8459C31.9833 32.9768 31.985 33.1139 32.021 33.2439C32.057 33.3739 32.1261 33.4924 32.2215 33.5878C32.3169 33.6831 32.4354 33.7522 32.5654 33.7882C32.6954 33.8242 32.8325 33.826 32.9634 33.7933L36.0884 33.012C36.2257 32.9777 36.3512 32.9067 36.4513 32.8065L48.4659 20.7919C48.6923 20.5655 48.8719 20.2966 48.9945 20.0008C49.117 19.7049 49.1801 19.3879 49.1801 19.0676C49.1801 18.7474 49.117 18.4303 48.9945 18.1345C48.8719 17.8386 48.6923 17.5698 48.4659 17.3434C48.2395 17.1169 47.9706 16.9373 47.6748 16.8148C47.3789 16.6922 47.0618 16.6292 46.7416 16.6292C46.4214 16.6292 46.1043 16.6922 45.8085 16.8148C45.5126 16.9373 45.2438 17.1169 45.0174 17.3434L33.0027 29.3579ZM35.4995 31.5486L33.8476 31.9616L34.2606 30.3098L44.4926 20.0776L45.7316 21.3166L35.4995 31.5486ZM46.7417 18.1916C46.9149 18.1916 47.0843 18.2429 47.2284 18.3392C47.3725 18.4355 47.4848 18.5723 47.5511 18.7324C47.6174 18.8925 47.6348 19.0686 47.6009 19.2386C47.5671 19.4085 47.4837 19.5646 47.3611 19.6871L46.8364 20.2118L45.5974 18.9729L46.1221 18.4482C46.2033 18.3666 46.2998 18.3019 46.4062 18.2578C46.5125 18.2138 46.6265 18.1913 46.7416 18.1916H46.7417Z" fill="#489157"/>
<path d="M39.0239 32.2541C38.8167 32.2541 38.618 32.3365 38.4715 32.483C38.325 32.6295 38.2427 32.8282 38.2427 33.0354C38.2427 33.2426 38.325 33.4413 38.4715 33.5878C38.618 33.7343 38.8167 33.8166 39.0239 33.8166H43.7114C43.9186 33.8166 44.1173 33.7343 44.2639 33.5878C44.4104 33.4413 44.4927 33.2426 44.4927 33.0354C44.4927 32.8282 44.4104 32.6295 44.2639 32.483C44.1173 32.3365 43.9186 32.2541 43.7114 32.2541H39.0239ZM20.2107 37.4152C20.1505 37.2747 20.0504 37.1549 19.9227 37.0707C19.7951 36.9866 19.6456 36.9417 19.4927 36.9417C19.3398 36.9417 19.1903 36.9866 19.0626 37.0707C18.935 37.1549 18.8348 37.2747 18.7746 37.4152L14.0871 48.3527C14.0076 48.5428 14.0063 48.7566 14.0837 48.9476C14.161 49.1385 14.3107 49.2912 14.5001 49.3724C14.6895 49.4536 14.9032 49.4566 15.0949 49.3809C15.2865 49.3052 15.4405 49.1568 15.5232 48.9681L16.3257 47.0957C16.3396 47.0965 16.3535 47.0979 16.3677 47.0979H22.6177C22.6318 47.0979 22.6457 47.0965 22.6597 47.0957L23.4621 48.9681C23.5449 49.1568 23.6988 49.3052 23.8905 49.3809C24.0821 49.4566 24.2959 49.4536 24.4853 49.3724C24.6747 49.2912 24.8244 49.1385 24.9017 48.9476C24.979 48.7566 24.9778 48.5428 24.8982 48.3527L20.2107 37.4152ZM16.9944 45.5354L19.4927 39.7062L21.9909 45.5354H16.9944ZM17.9302 33.8166V31.0152L20.5027 33.5878C20.612 33.6971 20.7512 33.7715 20.9028 33.8017C21.0543 33.8318 21.2114 33.8163 21.3542 33.7572C21.4969 33.6981 21.6189 33.5979 21.7048 33.4695C21.7906 33.341 21.8364 33.1899 21.8364 33.0354V22.0979C21.8357 21.4765 21.5886 20.8808 21.1492 20.4414C20.7098 20.002 20.1141 19.7548 19.4927 19.7541H7.77393C7.15254 19.7548 6.5568 20.002 6.11742 20.4414C5.67803 20.8808 5.43087 21.4765 5.43018 22.0979V25.2229H4.64893C4.02754 25.2236 3.4318 25.4708 2.99242 25.9101C2.55303 26.3495 2.30587 26.9453 2.30518 27.5666V37.7229C2.30517 37.8774 2.35099 38.0285 2.43683 38.157C2.52268 38.2854 2.64469 38.3856 2.78745 38.4447C2.93021 38.5038 3.0873 38.5193 3.23885 38.4892C3.3904 38.459 3.52961 38.3846 3.63887 38.2753L5.75371 36.1604H15.5864C16.2078 36.1597 16.8035 35.9125 17.2429 35.4732C17.6823 35.0338 17.9295 34.438 17.9302 33.8166ZM6.99268 22.0979C6.99293 21.8908 7.07533 21.6922 7.22178 21.5458C7.36824 21.3993 7.5668 21.3169 7.77393 21.3166H19.4927C19.6998 21.3169 19.8984 21.3993 20.0448 21.5458C20.1913 21.6922 20.2737 21.8908 20.2739 22.0979V31.1494L18.4826 29.358C18.4101 29.2854 18.3239 29.2279 18.2292 29.1886C18.1344 29.1493 18.0328 29.1291 17.9302 29.1291H7.77393C7.5668 29.1289 7.36824 29.0465 7.22178 28.9C7.07533 28.7536 6.99293 28.555 6.99268 28.3479V22.0979ZM5.43018 34.5979C5.32758 34.5979 5.22598 34.6181 5.1312 34.6574C5.03641 34.6966 4.95028 34.7542 4.87773 34.8267L3.86768 35.8369V27.5666C3.86793 27.3595 3.95033 27.161 4.09678 27.0145C4.24324 26.868 4.4418 26.7857 4.64893 26.7854H5.43018V28.3479C5.43087 28.9693 5.67803 29.565 6.11742 30.0044C6.5568 30.4438 7.15254 30.691 7.77393 30.6916H16.3677V33.8166C16.3674 34.0238 16.285 34.2223 16.1386 34.3688C15.9921 34.5152 15.7935 34.5976 15.5864 34.5979H5.43018ZM17.1489 18.1916H22.6177C23.2391 18.1923 23.8348 18.4395 24.2742 18.8789C24.7136 19.3183 24.9607 19.914 24.9614 20.5354C24.9614 20.7426 25.0437 20.9413 25.1902 21.0878C25.3368 21.2343 25.5355 21.3166 25.7427 21.3166C25.9499 21.3166 26.1486 21.2343 26.2951 21.0878C26.4416 20.9413 26.5239 20.7426 26.5239 20.5354C26.5246 19.914 26.7718 19.3183 27.2112 18.8789C27.6506 18.4395 28.2463 18.1923 28.8677 18.1916H34.3364C34.5436 18.1916 34.7423 18.1093 34.8889 17.9628C35.0354 17.8163 35.1177 17.6176 35.1177 17.4104V3.3479C35.1177 3.1407 35.0354 2.94199 34.8889 2.79547C34.7423 2.64896 34.5436 2.56665 34.3364 2.56665H28.8677C28.261 2.56669 27.6626 2.70818 27.1202 2.97988C26.5777 3.25159 26.1061 3.64603 25.7427 4.13188C25.3793 3.64603 24.9077 3.25159 24.3652 2.97988C23.8227 2.70818 23.2244 2.56669 22.6177 2.56665H17.1489C16.9417 2.56665 16.743 2.64896 16.5965 2.79547C16.45 2.94199 16.3677 3.1407 16.3677 3.3479V17.4104C16.3677 17.6176 16.45 17.8163 16.5965 17.9628C16.743 18.1093 16.9417 18.1916 17.1489 18.1916ZM17.9302 4.12915H22.6177C23.2391 4.12985 23.8348 4.377 24.2742 4.81639C24.7136 5.25578 24.9607 5.85151 24.9614 6.4729C24.9614 6.6801 25.0437 6.87881 25.1902 7.02533C25.3368 7.17184 25.5355 7.25415 25.7427 7.25415C25.9499 7.25415 26.1486 7.17184 26.2951 7.02533C26.4416 6.87881 26.5239 6.6801 26.5239 6.4729C26.5246 5.85151 26.7718 5.25578 27.2112 4.81639C27.6506 4.377 28.2463 4.12985 28.8677 4.12915H33.5552V16.6291H28.8677C28.022 16.6282 27.1992 16.9032 26.5239 17.4123V15.8479C26.5239 15.6407 26.4416 15.442 26.2951 15.2955C26.1486 15.149 25.9499 15.0666 25.7427 15.0666C25.5355 15.0666 25.3368 15.149 25.1902 15.2955C25.0437 15.442 24.9614 15.6407 24.9614 15.8479V17.4123C24.2862 16.9032 23.4633 16.6282 22.6177 16.6291H17.9302V4.12915Z" fill="#489157"/>
<path d="M30.0063 12.7488L31.5991 11.8386C31.7174 11.771 31.816 11.6735 31.885 11.556C31.9541 11.4385 31.9911 11.3049 31.9926 11.1686C31.994 11.0323 31.9598 10.898 31.8933 10.779C31.8267 10.6601 31.7302 10.5606 31.6134 10.4905L28.4426 8.58811C28.1048 8.38429 27.7209 8.26943 27.3268 8.25427C26.9326 8.2391 26.541 8.32413 26.1886 8.50139L25.7427 8.72444L25.2968 8.50139C24.9444 8.32403 24.5528 8.23895 24.1586 8.2541C23.7644 8.26924 23.3805 8.38413 23.0428 8.58801L19.872 10.4905C19.7551 10.5606 19.6585 10.6601 19.592 10.7791C19.5255 10.8981 19.4912 11.0324 19.4927 11.1687C19.4941 11.305 19.5312 11.4386 19.6003 11.5561C19.6693 11.6736 19.7679 11.7711 19.8863 11.8387L21.479 12.7489C22.7786 13.4876 24.2478 13.876 25.7427 13.876C27.2375 13.876 28.7067 13.4875 30.0063 12.7488ZM21.8198 11.144L23.8467 9.92786C23.9592 9.8599 24.0872 9.82161 24.2186 9.81655C24.35 9.8115 24.4805 9.83985 24.5979 9.89895L25.3932 10.2966C25.5017 10.3509 25.6214 10.3791 25.7427 10.3791C25.8639 10.3791 25.9836 10.3509 26.0921 10.2966L26.8874 9.89905C27.0048 9.83993 27.1354 9.81157 27.2668 9.8166C27.3982 9.82164 27.5262 9.85992 27.6387 9.92786L29.6655 11.144L29.2311 11.3922C28.1678 11.9966 26.9657 12.3144 25.7427 12.3144C24.5196 12.3144 23.3175 11.9966 22.2542 11.3922L21.8198 11.144ZM35.5973 48.0437L32.9266 45.9665C32.7193 45.8052 32.5179 45.6382 32.3224 45.4657C34.0927 43.507 35.2887 41.0983 35.7791 38.5041H37.4614C37.6686 38.5041 37.8673 38.4218 38.0138 38.2753C38.1603 38.1288 38.2427 37.9301 38.2427 37.7229C38.2427 37.5157 38.1603 37.317 38.0138 37.1704C37.8673 37.0239 37.6686 36.9416 37.4614 36.9416H31.9927V35.3791C31.9927 35.1719 31.9103 34.9732 31.7638 34.8267C31.6173 34.6802 31.4186 34.5979 31.2114 34.5979C31.0042 34.5979 30.8055 34.6802 30.659 34.8267C30.5125 34.9732 30.4302 35.1719 30.4302 35.3791V36.9416H24.9614C24.7542 36.9416 24.5555 37.0239 24.409 37.1704C24.2625 37.317 24.1802 37.5157 24.1802 37.7229C24.1802 37.9301 24.2625 38.1288 24.409 38.2753C24.5555 38.4218 24.7542 38.5041 24.9614 38.5041H26.6437C27.1341 41.0983 28.3301 43.507 30.1004 45.4657C29.9045 45.6377 29.7031 45.8047 29.4962 45.9665L26.8255 48.0437C26.7445 48.1067 26.6767 48.185 26.626 48.2742C26.5753 48.3634 26.5426 48.4617 26.5299 48.5635C26.5172 48.6653 26.5246 48.7686 26.5518 48.8675C26.579 48.9665 26.6255 49.0591 26.6885 49.1401C26.7514 49.2211 26.8298 49.2888 26.919 49.3396C27.0082 49.3903 27.1065 49.4229 27.2083 49.4356C27.3101 49.4484 27.4134 49.4409 27.5123 49.4137C27.6113 49.3865 27.7039 49.3401 27.7848 49.2771L30.4554 47.1999C30.7157 46.9975 30.9677 46.7873 31.2114 46.5694C31.4554 46.7869 31.7074 46.997 31.9673 47.1998L34.638 49.277C34.8015 49.4042 35.0089 49.4612 35.2145 49.4356C35.4201 49.4099 35.6071 49.3036 35.7343 49.14C35.8615 48.9765 35.9186 48.7691 35.8929 48.5635C35.8672 48.3579 35.7609 48.1709 35.5973 48.0437ZM34.1849 38.5041C33.7204 40.6828 32.6955 42.7025 31.2114 44.3638C29.7273 42.7025 28.7024 40.6828 28.2379 38.5041H34.1849ZM3.19343 23.6531C3.29508 23.6672 3.39852 23.6611 3.49783 23.6352C3.59714 23.6093 3.69036 23.5641 3.77217 23.5021C3.85397 23.4402 3.92274 23.3627 3.97456 23.2741C4.02636 23.1855 4.06019 23.0875 4.0741 22.9859C4.52955 19.7193 5.71737 16.598 7.5488 13.855C9.38023 11.1121 11.8079 8.81857 14.6504 7.14583C14.7395 7.09413 14.8176 7.02529 14.88 6.9433C14.9425 6.8613 14.9881 6.76775 15.0142 6.66805C15.0403 6.56835 15.0465 6.46446 15.0323 6.36238C15.0181 6.26029 14.9838 6.16202 14.9315 6.07323C14.8792 5.98444 14.8098 5.90689 14.7273 5.84503C14.6449 5.78318 14.551 5.73825 14.4511 5.71284C14.3512 5.68743 14.2473 5.68203 14.1453 5.69696C14.0433 5.71189 13.9453 5.74685 13.8569 5.79983C10.8114 7.59225 8.21047 10.0498 6.2484 12.9889C4.28634 15.9279 3.01392 19.2724 2.52625 22.7724C2.51223 22.874 2.51837 22.9774 2.54431 23.0767C2.57025 23.1759 2.61549 23.2691 2.67745 23.3509C2.7394 23.4327 2.81686 23.5015 2.90539 23.5533C2.99392 23.6051 3.0918 23.639 3.19343 23.6531ZM13.6743 44.2518C11.2197 42.6289 9.11795 40.5272 7.495 38.0726C7.43869 37.9862 7.36586 37.9119 7.28069 37.8538C7.19552 37.7957 7.0997 37.7551 6.99875 37.7342C6.8978 37.7133 6.79372 37.7127 6.6925 37.7322C6.59129 37.7517 6.49494 37.7911 6.40901 37.848C6.32308 37.905 6.24927 37.9784 6.19183 38.064C6.13439 38.1496 6.09446 38.2457 6.07434 38.3468C6.05422 38.4479 6.05431 38.552 6.0746 38.653C6.09488 38.7541 6.13497 38.8502 6.19256 38.9357C7.93086 41.5648 10.182 43.8159 12.8111 45.5542C12.8966 45.6118 12.9927 45.6519 13.0937 45.6722C13.1948 45.6925 13.2989 45.6926 13.4 45.6724C13.5011 45.6523 13.5972 45.6124 13.6828 45.555C13.7684 45.4975 13.8418 45.4237 13.8987 45.3378C13.9557 45.2518 13.9951 45.1555 14.0146 45.0543C14.0341 44.9531 14.0334 44.849 14.0126 44.748C13.9917 44.6471 13.9511 44.5513 13.893 44.4661C13.8349 44.3809 13.7606 44.3081 13.6743 44.2518ZM36.8349 7.14583C40.0381 9.0369 42.7099 11.7087 44.601 14.9118C44.6527 15.001 44.7215 15.0791 44.8035 15.1415C44.8855 15.2039 44.979 15.2496 45.0787 15.2757C45.1784 15.3018 45.2823 15.308 45.3844 15.2938C45.4865 15.2796 45.5848 15.2453 45.6735 15.193C45.7623 15.1406 45.8399 15.0712 45.9017 14.9888C45.9636 14.9064 46.0085 14.8125 46.0339 14.7126C46.0594 14.6127 46.0648 14.5088 46.0498 14.4068C46.0349 14.3048 45.9999 14.2068 45.9469 14.1184C43.9213 10.6873 41.0594 7.82543 37.6284 5.79983C37.45 5.69639 37.2379 5.66768 37.0384 5.71997C36.8389 5.77225 36.6682 5.90129 36.5635 6.07895C36.4588 6.2566 36.4285 6.46846 36.4794 6.66832C36.5302 6.86818 36.658 7.03982 36.8349 7.14583ZM9.3364 26.0041H10.1177C10.3249 26.0041 10.5236 25.9218 10.6701 25.7753C10.8166 25.6288 10.8989 25.4301 10.8989 25.2229C10.8989 25.0157 10.8166 24.817 10.6701 24.6705C10.5236 24.5239 10.3249 24.4416 10.1177 24.4416H9.3364C9.1292 24.4416 8.93049 24.5239 8.78398 24.6705C8.63746 24.817 8.55515 25.0157 8.55515 25.2229C8.55515 25.4301 8.63746 25.6288 8.78398 25.7753C8.93049 25.9218 9.1292 26.0041 9.3364 26.0041ZM13.2427 26.0041H14.0239C14.2311 26.0041 14.4298 25.9218 14.5763 25.7753C14.7228 25.6288 14.8052 25.4301 14.8052 25.2229C14.8052 25.0157 14.7228 24.817 14.5763 24.6705C14.4298 24.5239 14.2311 24.4416 14.0239 24.4416H13.2427C13.0355 24.4416 12.8367 24.5239 12.6902 24.6705C12.5437 24.817 12.4614 25.0157 12.4614 25.2229C12.4614 25.4301 12.5437 25.6288 12.6902 25.7753C12.8367 25.9218 13.0355 26.0041 13.2427 26.0041ZM17.1489 26.0041H17.9302C18.1374 26.0041 18.3361 25.9218 18.4826 25.7753C18.6291 25.6288 18.7114 25.4301 18.7114 25.2229C18.7114 25.0157 18.6291 24.817 18.4826 24.6705C18.3361 24.5239 18.1374 24.4416 17.9302 24.4416H17.1489C16.9417 24.4416 16.743 24.5239 16.5965 24.6705C16.45 24.817 16.3677 25.0157 16.3677 25.2229C16.3677 25.4301 16.45 25.6288 16.5965 25.7753C16.743 25.9218 16.9417 26.0041 17.1489 26.0041Z" fill="#489157"/>
</svg>
