<svg width="51" height="51" viewBox="0 0 51 51" fill="none" xmlns="http://www.w3.org/2000/svg">
<g clip-path="url(#clip0_783_3442)">
<path d="M34.7311 36.8196C33.8502 36.51 32.94 36.1897 32.1383 35.8167C31.0631 35.3157 30.4215 34.3079 30.4215 33.1223V32.5579C31.8707 31.468 32.9166 29.8704 33.2936 28.0315H33.8482C35.233 28.0315 36.359 26.9055 36.359 25.5208V23.3147C36.359 22.7688 36.3687 22.2375 36.3785 21.7229C36.4176 19.6575 36.4508 17.8733 35.8199 16.4631C35.1002 14.8557 33.6578 13.9944 31.2857 13.759L32.0777 12.6379C32.398 12.178 32.4361 11.6077 32.1803 11.1135C31.9264 10.6233 31.4254 10.3176 30.8727 10.3176H24.5279C22.0689 10.3176 19.7584 11.1028 18.0201 12.5276C16.1246 14.0813 15.0807 16.3 15.0807 18.7747V25.5208C15.0807 26.9055 16.2066 28.0315 17.5914 28.0315H18.149C18.5289 29.8879 19.5924 31.4983 21.0631 32.5891V33.1223C21.0631 34.3079 20.4225 35.3157 19.3492 35.8167C18.5465 36.1907 17.6363 36.51 16.7555 36.8196C13.6383 37.9153 10.1061 39.1565 10.1061 43.3616V48.2971C10.1061 49.1096 10.7662 49.7698 11.5787 49.7698H39.9088C40.7213 49.7698 41.3814 49.1096 41.3814 48.2971V43.3616C41.3805 39.1565 37.8482 37.9153 34.7311 36.8196ZM34.7984 25.5208C34.7984 26.0442 34.3727 26.47 33.8492 26.47H33.4478V22.3674H33.8482C34.3717 22.3674 34.7975 22.7922 34.7975 23.3137V25.5208H34.7984ZM24.5279 11.8792H30.7027L29.9225 12.9846C29.6139 13.4221 29.565 13.9719 29.7906 14.4534C30.0152 14.9377 30.4664 15.2541 30.9986 15.301C34.5719 15.6106 34.8736 17.2004 34.8287 21.0061C34.5186 20.8745 34.1851 20.8067 33.8482 20.8069H33.2467C32.8219 19.7209 31.7643 18.9495 30.5289 18.9495H29.9693C29.5094 18.9495 29.1353 18.8362 28.7574 18.5833L27.7994 17.9407L27.7984 17.9397C26.5172 17.0842 24.9244 17.0842 23.6412 17.9407L22.6842 18.5823C22.3053 18.8362 21.9303 18.9485 21.4713 18.9485H20.9117C19.6764 18.9485 18.6197 19.72 18.1939 20.8059H17.5895C17.2535 20.8059 16.9332 20.8723 16.6402 20.9924V18.7737C16.6412 14.2483 20.609 11.8792 24.5279 11.8792ZM16.6412 25.5208V23.3147C16.6412 22.7922 17.067 22.3684 17.5904 22.3684H17.9947V26.4709H17.5904C17.067 26.4709 16.6412 26.0442 16.6412 25.5208ZM19.5562 26.512V21.8665C19.5562 21.1184 20.1646 20.51 20.9127 20.51H21.4723C22.2389 20.51 22.9195 20.304 23.5543 19.8792L24.5104 19.2375C25.2682 18.7317 26.1734 18.7317 26.9312 19.2375L27.8893 19.8801C28.523 20.304 29.2037 20.51 29.9703 20.51H30.5299C31.2779 20.51 31.8863 21.1184 31.8863 21.8665V26.512C31.8863 28.5657 30.8492 30.3811 29.2711 31.4631C29.2311 31.4846 29.1939 31.51 29.1588 31.5374C28.1859 32.175 27.0476 32.5141 25.8844 32.5129H25.5582C24.3648 32.5129 23.2516 32.1614 22.316 31.5579C22.2809 31.5315 22.2437 31.5071 22.2047 31.4866C20.608 30.4075 19.5562 28.5803 19.5562 26.512ZM25.5582 34.0745H25.8844C26.9449 34.0745 27.9547 33.8538 28.8717 33.4583C28.94 34.4612 29.316 35.3665 29.941 36.0852C29.192 37.718 27.5602 38.7864 25.7438 38.7864C23.9264 38.7864 22.2945 37.718 21.5455 36.0842C22.1656 35.3704 22.5396 34.4719 22.6109 33.4768C23.5162 33.8616 24.5123 34.0745 25.5582 34.0745ZM39.8199 48.2092H34.1891V45.8088C34.1891 45.3772 33.8395 45.0286 33.4088 45.0286C32.9781 45.0286 32.6285 45.3782 32.6285 45.8088V48.2092H18.859V45.8088C18.859 45.3772 18.5094 45.0286 18.0787 45.0286C17.648 45.0286 17.2984 45.3782 17.2984 45.8088V48.2092H11.6676V43.3625C11.6676 40.2629 14.2652 39.3508 17.273 38.2932C18.1891 37.9709 19.1363 37.6389 20.0084 37.2327C20.108 37.1858 20.2047 37.137 20.2994 37.0852C21.3648 39.0715 23.443 40.3489 25.7438 40.3489C28.0445 40.3489 30.1227 39.0715 31.1881 37.0852C31.2828 37.137 31.3805 37.1868 31.4801 37.2336C32.3521 37.6399 33.2994 37.9719 34.2145 38.2942C37.2223 39.3508 39.8199 40.2639 39.8199 43.3635V48.2092ZM50.4195 23.8889L50.4117 23.8811L44.9693 18.4387C44.8647 18.3336 44.7401 18.2503 44.603 18.1936C44.4659 18.1369 44.3189 18.1081 44.1705 18.1086C43.8688 18.1086 43.5855 18.2258 43.3717 18.4387L37.9293 23.8811C37.7709 24.0389 37.6631 24.2404 37.6198 24.4597C37.5765 24.6791 37.5996 24.9064 37.6861 25.1125C37.8619 25.5334 38.2701 25.8059 38.7281 25.8059H41.0729V36.9514C41.0729 37.6135 41.6119 38.1526 42.274 38.1526H46.0641C46.7262 38.1526 47.2652 37.6135 47.2652 36.9514V25.8059H49.6129C50.0699 25.8059 50.4791 25.5334 50.6549 25.1125C50.8287 24.6956 50.7369 24.2151 50.4195 23.8889ZM46.8346 24.2454C46.2115 24.2454 45.7047 24.7522 45.7047 25.3743V36.5911H42.6344V25.3743C42.6344 24.7512 42.1285 24.2454 41.5074 24.2454H39.774L44.1705 19.8489L48.567 24.2454H46.8346ZM10.4127 25.8059H12.7574C13.2145 25.8059 13.6236 25.5334 13.7994 25.1125C13.9762 24.6887 13.8805 24.2053 13.5562 23.8811L8.11387 18.4387C7.67344 17.9983 6.95762 17.9983 6.51719 18.4387L1.0748 23.8811C0.916384 24.0389 0.808628 24.2404 0.765312 24.4597C0.721996 24.6791 0.745089 24.9064 0.831638 25.1125C1.00742 25.5334 1.41562 25.8059 1.87363 25.8059H4.21836V36.9514C4.21836 37.6135 4.7584 38.1526 5.42246 38.1526H9.20957C9.87363 38.1526 10.4137 37.6135 10.4137 36.9514V25.8059H10.4127ZM9.97812 24.2454C9.35703 24.2454 8.85117 24.7522 8.85117 25.3743V36.5911H5.7789V25.3743C5.7789 24.7512 5.27304 24.2454 4.65195 24.2454H2.91855L7.31504 19.8489L11.7115 24.2454H9.97812ZM24.9625 7.17017V3.0188C24.9625 2.58716 25.3121 2.23853 25.7428 2.23853C26.1744 2.23853 26.523 2.58813 26.523 3.0188V7.17114C26.523 7.60278 26.1734 7.95142 25.7428 7.95142C25.3121 7.95142 24.9625 7.60181 24.9625 7.17017ZM30.2262 7.66138L31.3004 3.6477C31.4117 3.23169 31.8395 2.98462 32.2564 3.09497C32.4565 3.14854 32.627 3.27933 32.7307 3.4586C32.8343 3.63787 32.8626 3.85095 32.8092 4.05103L31.735 8.0647C31.6904 8.23064 31.5924 8.37728 31.4561 8.48195C31.3198 8.58663 31.1529 8.64351 30.9811 8.6438C30.9146 8.6438 30.8463 8.63501 30.7789 8.61743C30.3619 8.50513 30.1148 8.07739 30.2262 7.66138ZM35.1852 9.49341L37.2613 5.89478C37.4771 5.52173 37.9537 5.39282 38.3277 5.60864C38.7008 5.82446 38.8297 6.30103 38.6139 6.67505L36.5377 10.2737C36.3932 10.5247 36.1305 10.6643 35.8609 10.6643C35.7242 10.6641 35.5898 10.6281 35.4713 10.5598C35.0973 10.344 34.9693 9.86646 35.1852 9.49341ZM39.5006 13.6526C39.3541 13.5062 39.2718 13.3076 39.2716 13.1005C39.2714 12.8935 39.3534 12.6948 39.4996 12.5481L42.4371 9.60864C42.5835 9.46218 42.7821 9.37982 42.9892 9.37963C43.1962 9.37945 43.3949 9.46146 43.5416 9.60767C43.6881 9.75407 43.7704 9.95262 43.7706 10.1597C43.7708 10.3668 43.6888 10.5655 43.5426 10.7122L40.6051 13.6516C40.5325 13.7242 40.4464 13.7818 40.3515 13.821C40.2566 13.8602 40.155 13.8803 40.0523 13.8801C39.8521 13.8811 39.6529 13.8049 39.5006 13.6526ZM18.6754 4.05103C18.5641 3.63501 18.8111 3.2063 19.2271 3.09497C19.6432 2.98267 20.0719 3.23071 20.1832 3.64673L21.2604 7.6604C21.3717 8.07642 21.1246 8.50513 20.7086 8.61646C20.6412 8.63501 20.5729 8.64282 20.5055 8.64282C20.1607 8.64282 19.8453 8.41333 19.7516 8.0647L18.6754 4.05103ZM12.8707 6.67505C12.6549 6.302 12.7828 5.82446 13.1559 5.60864C13.5289 5.39282 14.0064 5.52075 14.2223 5.8938L16.3014 9.49243C16.5172 9.86548 16.3893 10.343 16.0162 10.5588C15.8979 10.6275 15.7634 10.6636 15.6266 10.6633C15.357 10.6633 15.0943 10.5237 14.9498 10.2727L12.8707 6.67505ZM7.94492 10.7122C7.64023 10.4075 7.64023 9.91333 7.9459 9.60767C8.25058 9.30298 8.74472 9.30298 9.05039 9.60864L11.9879 12.5481C12.2926 12.8528 12.2926 13.3469 11.9869 13.6526C11.9145 13.7251 11.8285 13.7826 11.7338 13.8218C11.6391 13.8611 11.5376 13.8812 11.4352 13.8811C11.235 13.8811 11.0357 13.8049 10.8824 13.6526L7.94492 10.7122Z" fill="#489157"/>
</g>
<defs>
<clipPath id="clip0_783_3442">
<rect width="50" height="50" fill="white" transform="translate(0.5 0.647949)"/>
</clipPath>
</defs>
</svg>
