<svg width="51" height="51" viewBox="0 0 51 51" fill="none" xmlns="http://www.w3.org/2000/svg">
<path d="M34.8323 40.172C33.2443 38.7345 31.3453 37.6838 29.2838 37.1021C31.461 35.8066 32.9238 33.4306 32.9238 30.7184C32.9238 26.6249 29.5934 23.2945 25.4999 23.2945C21.4064 23.2945 18.076 26.6249 18.076 30.7184C18.076 33.4306 19.5388 35.8066 21.7161 37.1021C19.6545 37.6838 17.7554 38.7345 16.1674 40.172C13.6245 42.4717 12.024 45.6076 11.6608 49.0021C11.6492 49.1111 11.6607 49.2213 11.6944 49.3255C11.7282 49.4298 11.7834 49.5258 11.8567 49.6073C11.9299 49.6888 12.0195 49.754 12.1196 49.7986C12.2196 49.8433 12.328 49.8664 12.4376 49.8665L38.5621 49.8664C38.6717 49.8664 38.7801 49.8434 38.8802 49.7988C38.9804 49.7541 39.07 49.6889 39.1433 49.6074C39.2165 49.5259 39.2718 49.4298 39.3055 49.3255C39.3392 49.2212 39.3506 49.1109 39.3388 49.0019C38.9757 45.6075 37.3751 42.4717 34.8323 40.172ZM19.6386 30.7184C19.6386 27.4865 22.268 24.857 25.5 24.857C28.732 24.857 31.3614 27.4864 31.3614 30.7184C31.3614 33.95 28.7328 36.579 25.5013 36.5798H25.4988C22.2673 36.5791 19.6386 33.95 19.6386 30.7184ZM13.3375 48.3041C14.3794 42.4534 19.4617 38.1428 25.4987 38.1423H25.5012C31.538 38.1428 36.6204 42.4534 37.6624 48.304L13.3375 48.3041ZM16.8999 9.22908L20.8299 12.3878L19.5071 17.2532C19.3782 17.7276 19.5518 18.2209 19.9496 18.5098C20.1495 18.6562 20.3908 18.7353 20.6385 18.7357C20.861 18.7357 21.0841 18.6715 21.2813 18.5423L25.4999 15.7807L29.7185 18.5423C30.1298 18.8115 30.6525 18.7988 31.0505 18.5097C31.4481 18.2207 31.6218 17.7274 31.4926 17.2532L30.1699 12.3879L34.0999 9.22908C34.4831 8.92107 34.6324 8.42 34.4804 7.95242C34.3285 7.48484 33.9131 7.16726 33.4221 7.14333L28.386 6.89783L26.5965 2.18416C26.4223 1.72546 25.9921 1.42917 25.5 1.42908H25.4999C25.0079 1.42908 24.5775 1.72546 24.4033 2.18416L22.6137 6.89783L17.5776 7.14333C17.0866 7.16726 16.6712 7.48494 16.5192 7.95252C16.3673 8.42009 16.5167 8.92117 16.8999 9.22908ZM22.9443 8.44607C23.1723 8.435 23.3921 8.35765 23.5768 8.22349C23.7614 8.08933 23.903 7.9042 23.984 7.6908L25.4999 3.69802L27.0159 7.69099C27.0969 7.90433 27.2384 8.0894 27.423 8.22352C27.6077 8.35764 27.8274 8.43498 28.0553 8.44607L32.3214 8.65398L28.9925 11.3296C28.8145 11.4725 28.6821 11.6643 28.6116 11.8813C28.541 12.0984 28.5354 12.3314 28.5954 12.5516L29.7158 16.673L26.1423 14.3337C25.9513 14.2087 25.7281 14.1422 25.4999 14.1422C25.2717 14.1422 25.0485 14.2088 24.8576 14.3338L21.2843 16.673L22.4047 12.5516C22.4645 12.3314 22.4589 12.0985 22.3884 11.8815C22.3178 11.6644 22.1856 11.4727 22.0077 11.3297L18.6787 8.65398L22.9443 8.44607ZM12.9471 21.1815H6.79724C6.59004 21.1815 6.39133 21.0992 6.24481 20.9527C6.0983 20.8062 6.01599 20.6075 6.01599 20.4003C6.01599 20.1931 6.0983 19.9944 6.24481 19.8478C6.39133 19.7013 6.59004 19.619 6.79724 19.619H12.9472C13.0498 19.619 13.1514 19.6392 13.2462 19.6785C13.341 19.7178 13.4271 19.7753 13.4997 19.8479C13.5722 19.9204 13.6297 20.0066 13.669 20.1013C13.7082 20.1961 13.7284 20.2977 13.7284 20.4003C13.7284 20.5029 13.7082 20.6045 13.669 20.6993C13.6297 20.7941 13.5721 20.8802 13.4996 20.9527C13.427 21.0253 13.3409 21.0828 13.2461 21.1221C13.1513 21.1613 13.0497 21.1815 12.9471 21.1815ZM8.62624 10.6584C8.67753 10.5695 8.74581 10.4916 8.8272 10.4292C8.90859 10.3667 9.0015 10.3209 9.1006 10.2943C9.1997 10.2678 9.30307 10.261 9.40479 10.2744C9.50651 10.2878 9.60459 10.3211 9.69343 10.3724L15.0195 13.4474C15.1685 13.5334 15.285 13.6662 15.3508 13.8252C15.4167 13.9842 15.4282 14.1605 15.3835 14.3267C15.3389 14.4929 15.2407 14.6397 15.1041 14.7443C14.9675 14.8489 14.8002 14.9055 14.6281 14.9053C14.4912 14.9053 14.3567 14.8692 14.2383 14.8006L8.91218 11.7256C8.73275 11.622 8.60182 11.4513 8.5482 11.2512C8.49458 11.0511 8.52265 10.8378 8.62624 10.6584ZM15.0195 27.3533L9.69343 30.4283C9.60459 30.4796 9.50651 30.513 9.40479 30.5264C9.30307 30.5398 9.1997 30.533 9.10059 30.5065C9.00148 30.4799 8.90858 30.4341 8.82719 30.3716C8.7458 30.3091 8.67752 30.2312 8.62624 30.1424C8.52265 29.9629 8.49458 29.7497 8.5482 29.5495C8.60182 29.3494 8.73275 29.1788 8.91218 29.0752L14.2383 26.0002C14.4176 25.8982 14.63 25.8713 14.8291 25.9254C15.0282 25.9794 15.1978 26.11 15.301 26.2887C15.4041 26.4674 15.4324 26.6796 15.3797 26.879C15.327 27.0785 15.1975 27.249 15.0195 27.3533ZM42.3734 30.1423C42.3221 30.2311 42.2539 30.309 42.1725 30.3715C42.0911 30.434 41.9982 30.4798 41.8991 30.5064C41.8 30.5329 41.6966 30.5397 41.5949 30.5263C41.4931 30.5129 41.3951 30.4795 41.3062 30.4282L35.9802 27.3532C35.8008 27.2496 35.6699 27.079 35.6163 26.8788C35.5626 26.6787 35.5907 26.4654 35.6943 26.286C35.7456 26.1971 35.8139 26.1193 35.8953 26.0568C35.9767 25.9943 36.0696 25.9485 36.1687 25.9219C36.2678 25.8954 36.3711 25.8886 36.4729 25.902C36.5746 25.9154 36.6727 25.9488 36.7615 26.0001L42.0875 29.0751C42.2669 29.1787 42.3978 29.3493 42.4515 29.5494C42.5051 29.7496 42.477 29.9628 42.3734 30.1423ZM44.9838 20.4003C44.9838 20.6075 44.9015 20.8062 44.7549 20.9527C44.6084 21.0992 44.4097 21.1815 44.2025 21.1815H38.0526C37.8454 21.1815 37.6467 21.0992 37.5002 20.9527C37.3537 20.8062 37.2714 20.6075 37.2714 20.4003C37.2714 20.1931 37.3537 19.9944 37.5002 19.8478C37.6467 19.7013 37.8454 19.619 38.0526 19.619H44.2026C44.4098 19.619 44.6085 19.7014 44.755 19.8479C44.9015 19.9944 44.9838 20.1931 44.9838 20.4003ZM35.6943 14.5145C35.5907 14.3351 35.5626 14.1219 35.6163 13.9217C35.6699 13.7216 35.8008 13.5509 35.9802 13.4473L41.3062 10.3723C41.4857 10.2687 41.6989 10.2407 41.899 10.2943C42.0992 10.3479 42.2698 10.4788 42.3734 10.6583C42.477 10.8377 42.5051 11.051 42.4515 11.2511C42.3978 11.4512 42.2669 11.6219 42.0875 11.7255L36.7615 14.8005C36.6727 14.8519 36.5746 14.8852 36.4729 14.8987C36.3711 14.9121 36.2677 14.9053 36.1686 14.8788C36.0695 14.8522 35.9766 14.8064 35.8952 14.7439C35.8138 14.6814 35.7455 14.6034 35.6943 14.5145Z" fill="#489157"/>
</svg>
