<svg width="51" height="50" viewBox="0 0 51 50" fill="none" xmlns="http://www.w3.org/2000/svg">
<path d="M50.6958 46.9162L49.3842 40.0433L49.3816 40.0306C49.1557 38.951 48.1909 38.1675 47.0874 38.1675H45.8708V27.9422C45.8708 24.691 44.7793 21.5465 42.7973 19.088C41.3862 17.3371 39.8156 16.2509 38.1125 15.8423C38.8043 15.0514 39.3066 14.1131 39.5811 13.0989C39.8991 11.9984 40.3426 10.7075 40.356 9.55496C40.3755 7.88362 39.3936 6.3266 37.8426 5.63887C37.6487 5.55289 34.3338 4.63467 34.3338 4.63467C32.1026 4.02773 29.7447 5.39083 29.1405 7.61392L27.8752 12.45C27.0645 15.4291 29.3612 17.9352 32.2378 18.1997V25.0798L32.139 25.3437L26.3047 23.1618C25.6776 22.927 24.9461 23.1406 24.5451 23.6761C23.9504 23.4788 23.259 23.3502 22.7462 22.9827C22.2674 22.6396 21.8534 22.127 21.4272 21.7185C21.1205 21.4245 20.6824 21.3336 20.2839 21.4812C20.0898 21.5521 19.9197 21.6767 19.7936 21.8404C19.6674 22.0041 19.5902 22.2003 19.5711 22.4061C19.4495 23.6524 19.3069 24.879 20.3233 25.8342L23.1575 28.4973C23.2286 28.5639 23.3122 28.6158 23.4033 28.6501L32.2319 31.952C32.1886 32.3154 31.879 32.5982 31.5042 32.5982H23.1916C20.9017 32.5982 19.0387 34.4612 19.0387 36.751V40.8146C19.0387 43.104 20.9016 44.9666 23.1916 44.9666H37.4146L38.4484 46.1705C38.5718 46.3145 38.725 46.43 38.8973 46.5092C39.0695 46.5883 39.2569 46.6293 39.4465 46.6292H41.0578C42.056 46.6292 42.6327 45.559 42.2278 44.693C44.3557 43.9789 45.8705 41.9459 45.8705 39.6412V39.6382H47.0872C47.4967 39.6382 47.8548 39.9274 47.9409 40.3267L49.2521 47.1975C49.352 47.7343 48.9667 48.2635 48.3989 48.2635H3.08614C2.5236 48.2635 2.12695 47.7339 2.23292 47.1975L3.54417 40.3267C3.63025 39.9274 3.98838 39.6382 4.39778 39.6382H16.2758C16.6818 39.6382 17.011 39.3091 17.011 38.903C17.011 38.4968 16.6818 38.1677 16.2758 38.1677H4.39807C3.29467 38.1677 2.32978 38.9512 2.104 40.0308L2.10146 40.0435L0.789817 46.9158C0.494824 48.3491 1.62715 49.7339 3.08643 49.7339H48.3992C49.8585 49.734 50.9906 48.35 50.6958 46.9162ZM31.8534 6.3217C32.4928 5.95543 33.2368 5.86023 33.9479 6.05376L36.8494 6.84227C38.3177 7.24158 39.1877 8.76066 38.7886 10.2288C38.7458 10.386 38.7086 10.545 38.6687 10.7031L30.4853 8.28391C30.6808 7.46461 31.1046 6.75031 31.8534 6.3217ZM31.4296 16.5648C29.8264 16.1296 28.8595 14.4334 29.296 12.8291L30.1127 9.70721L38.3088 12.1301L38.1602 12.7196C37.7751 14.13 36.8644 15.3065 35.5952 16.0332C34.3273 16.7588 32.8531 16.9489 31.4434 16.5688C31.4388 16.5674 31.4342 16.5661 31.4296 16.5648ZM20.9242 23.6821L20.9607 23.3083C21.8991 24.2078 22.7463 24.6285 23.9706 25.0348L23.3594 26.669L21.3305 24.7625C21.1851 24.6251 21.073 24.4564 21.0026 24.2692C20.9322 24.082 20.9054 23.8812 20.9242 23.6821ZM20.5096 40.8145V36.7509C20.5096 35.2719 21.7128 34.0686 23.1919 34.0686H27.3143V38.1672H25.7428C25.3367 38.1672 25.0075 38.4963 25.0075 38.9025C25.0075 39.3086 25.3367 39.6377 25.7428 39.6377H35.3594C35.4002 39.6377 35.4336 39.6711 35.4336 39.7121V43.4955L23.1919 43.496C21.7128 43.4959 20.5096 42.293 20.5096 40.8145ZM39.5181 45.1585L38.3103 43.7519C37.9743 43.3604 37.3477 43.4956 36.904 43.4956V41.0672H38.4272C38.9218 41.0672 39.3571 41.3652 39.5363 41.8261L40.8312 45.1584L39.5181 45.1585ZM44.4002 39.641C44.4002 41.3346 43.2709 42.8252 41.6947 43.3205L40.907 41.2935C40.5064 40.2627 39.533 39.5967 38.4272 39.5967H36.8982C36.8388 38.7986 36.1721 38.1671 35.3593 38.1671H28.7848V34.0685H31.5043C32.5814 34.0685 33.48 33.2916 33.6704 32.2689C33.6831 32.269 33.6959 32.2698 33.7085 32.2698C34.2063 32.2693 34.6982 32.1617 35.1507 31.9545C35.9974 31.5687 36.6432 30.8765 36.9689 30.005L37.9445 27.3965C37.9783 27.3061 37.994 27.2099 37.9907 27.1134C37.9873 27.0169 37.965 26.922 37.9249 26.8342C37.8849 26.7463 37.828 26.6672 37.7574 26.6014C37.6868 26.5355 37.6039 26.4842 37.5134 26.4504C37.1335 26.3079 36.7095 26.5011 36.5673 26.8814L35.5917 29.4899C35.4034 29.9934 35.0303 30.3934 34.5411 30.6162C34.052 30.8389 33.5055 30.8579 33.0019 30.6698L24.6073 27.5303L25.713 24.5739C25.7289 24.5413 25.7544 24.5296 25.7895 24.5391L32.3126 26.9787C32.403 27.0126 32.4992 27.0283 32.5957 27.0249C32.6922 27.0216 32.7871 26.9992 32.875 26.9592C32.9628 26.9192 33.0419 26.8622 33.1078 26.7916C33.1736 26.721 33.2249 26.6381 33.2587 26.5476L35.1663 21.4472C35.6565 20.1366 37.5619 20.1052 38.1365 21.3665C38.2229 21.5549 38.2712 21.7586 38.2784 21.9658C38.2856 22.173 38.2517 22.3795 38.1785 22.5735L37.7812 23.6359C37.7474 23.7264 37.7317 23.8226 37.735 23.9191C37.7384 24.0155 37.7607 24.1104 37.8007 24.1983C37.8408 24.2861 37.8977 24.3653 37.9683 24.4311C38.0389 24.497 38.1218 24.5483 38.2122 24.5821C38.5924 24.7246 39.0162 24.5313 39.1584 24.151L39.5557 23.0887C39.841 22.326 39.8122 21.4977 39.4747 20.7568C39.137 20.0158 38.5311 19.4507 37.7686 19.1655C36.0663 18.5251 34.283 19.4552 33.7082 21.1482V18.1779C34.7439 18.0501 35.7377 17.6918 36.6167 17.1293C38.4369 17.1546 40.1308 18.1234 41.6523 20.0111C43.4242 22.2092 44.4001 25.0259 44.4001 27.9425V39.641H44.4002ZM11.1763 18.3879C14.9875 18.3879 18.1804 15.177 18.2081 11.3778C18.209 11.1567 18.1352 10.9417 17.9987 10.7678C17.8622 10.5938 17.6709 10.4711 17.4559 10.4194C17.2416 10.3665 17.0156 10.3876 16.8147 10.4791C16.6138 10.5707 16.4496 10.7274 16.3489 10.9239C15.7288 12.1292 14.4515 12.8782 13.0971 12.833C11.2557 12.7711 9.76472 11.28 9.70266 9.43869C9.65708 8.08342 10.4065 6.80708 11.6118 6.18689C12.5557 5.70141 12.1153 4.30233 11.0954 4.32811C7.32575 4.37144 4.20935 7.47314 4.14867 11.2421C4.11769 13.1642 4.84865 14.9707 6.20686 16.3289C7.53742 17.6595 9.29816 18.3879 11.1763 18.3879ZM9.42159 6.08699C8.6319 7.01943 8.19054 8.22979 8.23289 9.488C8.32073 12.0999 10.4356 14.2148 13.0475 14.3027C14.3057 14.3437 15.5161 13.9039 16.4483 13.1142C15.1497 16.9476 10.1268 18.169 7.24664 15.2891C6.17254 14.215 5.59442 12.7862 5.61893 11.2658C5.65756 8.8737 7.25262 6.82168 9.42159 6.08699Z" fill="#489157"/>
<path d="M16.7271 3.99273C17.1389 3.99273 17.4727 3.65893 17.4727 3.24716C17.4727 2.83539 17.1389 2.50159 16.7271 2.50159C16.3154 2.50159 15.9816 2.83539 15.9816 3.24716C15.9816 3.65893 16.3154 3.99273 16.7271 3.99273Z" fill="#489157"/>
<path d="M20.1827 7.71392C20.5945 7.71392 20.9283 7.38012 20.9283 6.96835C20.9283 6.55658 20.5945 6.22278 20.1827 6.22278C19.7709 6.22278 19.4371 6.55658 19.4371 6.96835C19.4371 7.38012 19.7709 7.71392 20.1827 7.71392Z" fill="#489157"/>
<path d="M20.9282 1.76531C21.34 1.76531 21.6738 1.43151 21.6738 1.01974C21.6738 0.607974 21.34 0.27417 20.9282 0.27417C20.5164 0.27417 20.1826 0.607974 20.1826 1.01974C20.1826 1.43151 20.5164 1.76531 20.9282 1.76531Z" fill="#489157"/>
<path d="M8.24589 41.03C7.91614 41.029 7.59685 41.1456 7.34539 41.359C7.09392 41.5723 6.92677 41.8683 6.87396 42.1938L6.37553 45.2105C6.30877 45.6141 6.4224 46.0247 6.687 46.3366C6.9516 46.6486 7.33816 46.8276 7.74737 46.8276H15.3263C16.0931 46.8276 16.7168 46.2039 16.7168 45.4371V42.4203C16.7168 41.6537 16.0931 41.0299 15.3263 41.0299L8.24589 41.03ZM15.2463 45.3571H7.84178L8.31373 42.5005H15.2462V45.3571H15.2463ZM37.385 33.4034C37.2471 33.2655 37.06 33.188 36.865 33.188C36.67 33.188 36.483 33.2655 36.3451 33.4034C36.2072 33.5413 36.1297 33.7283 36.1297 33.9233C36.1297 34.1183 36.2072 34.3053 36.3451 34.4432L39.2315 37.3296C39.3751 37.4732 39.5634 37.5449 39.7515 37.5449C39.9396 37.5449 40.1278 37.4732 40.2715 37.3296C40.3398 37.2614 40.3939 37.1803 40.4309 37.0911C40.4678 37.0019 40.4868 36.9063 40.4868 36.8097C40.4868 36.7131 40.4678 36.6175 40.4309 36.5283C40.3939 36.4391 40.3398 36.358 40.2715 36.2898L37.385 33.4034Z" fill="#489157"/>
</svg>
