<svg width="51" height="51" viewBox="0 0 51 51" fill="none" xmlns="http://www.w3.org/2000/svg">
<g clip-path="url(#clip0_783_3421)">
<path d="M27.819 9.44286C25.5168 7.7571 22.787 6.86906 19.9343 6.86906C17.0806 6.86906 14.3508 7.7571 12.0492 9.44286C9.74732 11.129 8.06757 13.4567 7.19876 16.1736C5.44169 21.6985 7.45808 27.6902 12.2308 31.0685C12.84 31.5027 13.2031 32.2025 13.2031 32.9488V34.0575C13.2031 35.1922 14.1239 36.1128 15.2588 36.1128L25.5494 36.1192C25.9386 36.1648 26.2372 36.4954 26.2372 36.8846C26.2372 37.2734 25.9386 37.6043 25.5494 37.6493L16.5295 37.6567H16.4778C14.883 37.728 13.6247 39.0308 13.6247 40.6327C13.6247 42.2339 14.8763 43.5377 16.4778 43.609H16.5167L23.9087 43.6803C24.2982 43.7254 24.5964 44.0559 24.5964 44.4455C24.5964 44.8343 24.2982 45.1651 23.9087 45.2099L17.3728 45.2172C16.763 45.2172 16.2705 45.71 16.2705 46.3191C16.2705 46.9286 16.763 47.4214 17.3728 47.4214L23.9673 47.4151C23.9937 47.4151 24.0257 47.4151 24.0517 47.4088H24.0836C25.6212 47.2789 26.807 45.9819 26.807 44.4518C26.807 42.9216 25.6274 41.631 24.1102 41.4884H23.9937L16.5751 41.4171C16.1666 41.3974 15.8427 41.0605 15.8427 40.6457C15.8427 40.2365 16.1602 39.8996 16.5687 39.8736L25.6074 39.8673C25.6337 39.8673 25.6661 39.8673 25.6924 39.861H25.7244C27.2482 39.7246 28.4285 38.4278 28.4285 36.8975C28.4285 35.3673 27.2419 34.0702 25.7244 33.9342H25.6011L15.4015 33.9279V32.9679C15.4015 31.5091 14.688 30.1281 13.4951 29.2847C9.50741 26.4576 7.82124 21.4649 9.28647 16.8545C10.7653 12.2056 15.0385 9.07969 19.921 9.07969C24.804 9.07969 29.077 12.2056 30.5552 16.8545C32.034 21.5035 30.3545 26.5226 26.3795 29.3434C25.8803 29.6932 25.7637 30.3807 26.1203 30.8799C26.3342 31.1851 26.6777 31.347 27.0213 31.347C27.2419 31.347 27.4625 31.2821 27.6568 31.1458C29.9846 29.4927 31.6965 27.1904 32.6044 24.487C33.5122 21.7762 33.5315 18.9101 32.6625 16.1933C31.8004 13.4566 30.121 11.129 27.819 9.44286ZM4.59236 19.3577H1.09077C0.591625 19.3577 0.183105 19.7662 0.183105 20.2653C0.183105 20.7645 0.591625 21.1731 1.09077 21.1731H4.59236C5.0915 21.1731 5.50002 20.7645 5.50002 20.2653C5.50002 19.7599 5.09791 19.3577 4.59236 19.3577ZM19.902 5.86338C20.4008 5.86338 20.8096 5.45487 20.8096 4.95572V1.45438C20.8096 0.954906 20.4008 0.546387 19.902 0.546387C19.4025 0.546387 18.994 0.954906 18.994 1.45438V4.95564C18.994 5.46144 19.3958 5.8633 19.9019 5.8633L19.902 5.86338ZM9.07949 10.3506C9.30611 10.3506 9.5397 10.2666 9.71495 10.0914C10.0711 9.74144 10.0782 9.16367 9.72793 8.80781L7.27008 6.28521C6.9199 5.92829 6.34311 5.92196 5.98619 6.27247C5.62968 6.62209 5.62335 7.19921 5.97353 7.55604L8.43106 10.0786C8.61231 10.2599 8.8459 10.3506 9.07949 10.3506ZM32.5915 6.29162L30.1339 8.81414C29.7834 9.17097 29.7898 9.74777 30.1467 10.098C30.3216 10.273 30.5552 10.3569 30.7824 10.3569C31.0161 10.3569 31.2559 10.2666 31.4309 10.085L33.8884 7.56286C34.2383 7.20594 34.2319 6.62915 33.8754 6.27888C33.5122 5.92205 32.9417 5.9347 32.5915 6.29162ZM38.7711 19.3577H35.2047C34.7055 19.3577 34.297 19.7662 34.297 20.2653C34.297 20.7645 34.7055 21.1731 35.2047 21.1731H38.7712C39.2704 21.1731 39.6789 20.7645 39.6789 20.2653C39.6789 19.7599 39.2703 19.3577 38.7711 19.3577Z" fill="#489157"/>
</g>
<defs>
<clipPath id="clip0_783_3421">
<rect width="50" height="50" fill="white" transform="translate(0.5 0.647949)"/>
</clipPath>
</defs>
</svg>
