<svg width="51" height="51" viewBox="0 0 51 51" fill="none" xmlns="http://www.w3.org/2000/svg">
<g clip-path="url(#clip0_783_3485)">
<path d="M25.4999 41.9009V49.143M9.41331 26.0306L4.83775 18.5422C3.4066 16.2925 0.723797 18.019 1.67633 20.05C2.34322 21.434 4.98657 28.0173 6.97182 32.3844C8.39984 35.5255 8.97621 36.331 11.4969 38.6222L15.3288 42.1053V43.2654M41.5863 26.0306L46.1619 18.5422C47.593 16.2925 50.2758 18.019 49.3232 20.05C48.6563 21.434 46.013 28.0173 44.0277 32.3844C42.5998 35.5255 42.0233 36.331 39.5027 38.6222L35.6707 42.1053V43.2654M12.5981 33.9601C11.53 32.2365 10.4436 29.9949 9.57611 27.8028C9.24535 26.9669 9.11585 26.0645 9.82396 25.4694C10.532 24.8743 11.5791 24.9505 12.1509 25.6385C12.6988 26.298 15.9428 30.3756 16.4906 31.035C19.514 34.6739 24.9059 35.6983 25.4998 41.9009C26.0936 35.6982 31.4856 34.6739 34.5089 31.035C35.0568 30.3756 38.3007 26.298 38.8486 25.6385C39.4204 24.9505 40.4675 24.8743 41.1756 25.4694C41.8837 26.0645 41.7542 26.9669 41.4234 27.8028C40.556 29.9949 39.4696 32.2365 38.4016 33.9601M13.7812 43.8119H37.2186V49.6713H13.7812V43.8119ZM28.3212 15.2585C29.8401 12.6278 27.047 10.8795 25.4998 12.4268C23.9525 10.8795 21.1595 12.6278 22.6783 15.2585C23.3773 16.4692 24.7872 17.5793 25.4998 17.7702C26.2124 17.5793 27.6222 16.4692 28.3212 15.2585Z" stroke="#489157" stroke-width="1.95312" stroke-miterlimit="22.9256" stroke-linecap="round" stroke-linejoin="round"/>
<path fill-rule="evenodd" clip-rule="evenodd" d="M33.5406 6.27908C34.7171 6.27254 35.8639 6.88035 36.4943 7.97214C37.1246 9.06403 37.0776 10.361 36.4836 11.3766C37.5058 11.9592 38.1952 13.0589 38.1952 14.3198C38.1952 15.5805 37.5059 16.6802 36.4836 17.2628C37.0776 18.2785 37.1246 19.5755 36.4943 20.6673C35.8639 21.7592 34.7171 22.3669 33.5406 22.3605C33.5471 23.537 32.9393 24.6838 31.8475 25.3142C30.7556 25.9445 29.4587 25.8975 28.443 25.3035C27.8603 26.3258 26.7606 27.015 25.4999 27.015C24.2392 27.015 23.1394 26.3258 22.5568 25.3036C21.5411 25.8976 20.2441 25.9446 19.1523 25.3143C18.0604 24.6839 17.4527 23.5371 17.4592 22.3606C16.2826 22.3671 15.1359 21.7593 14.5055 20.6674C13.8751 19.5756 13.9222 18.2785 14.5161 17.2629C13.494 16.6803 12.8046 15.5806 12.8046 14.3198C12.8046 13.059 13.4939 11.9593 14.5161 11.3767C13.9222 10.361 13.8751 9.06403 14.5055 7.97214C15.1359 6.88035 16.2826 6.27254 17.4592 6.27908C17.4527 5.10253 18.0605 3.95575 19.1523 3.32538C20.2441 2.69502 21.5411 2.74209 22.5567 3.33603C23.1394 2.31377 24.2391 1.62451 25.4999 1.62451C26.7606 1.62451 27.8603 2.31377 28.4429 3.33593C29.4587 2.74199 30.7556 2.69492 31.8475 3.32529C32.9393 3.95575 33.5471 5.10243 33.5406 6.27908Z" stroke="#489157" stroke-width="1.95312" stroke-miterlimit="22.9256" stroke-linecap="round" stroke-linejoin="round"/>
<path d="M26.6731 21.5493C30.666 20.9016 33.3778 17.1398 32.7302 13.1469C32.0826 9.15402 28.3207 6.44217 24.3278 7.08981C20.3349 7.73744 17.6231 11.4993 18.2707 15.4922C18.9184 19.4851 22.6802 22.1969 26.6731 21.5493Z" stroke="#489157" stroke-width="1.95312" stroke-miterlimit="22.9256" stroke-linecap="round" stroke-linejoin="round"/>
<path d="M22.5568 3.33594L23.5297 6.96719M17.4591 6.2791L20.1174 8.9373M14.5161 11.3768L18.1473 12.3497M14.5161 17.263L18.1473 16.2899M17.4592 22.3605L20.1174 19.7023M22.5569 25.3037L23.5298 21.6725M28.4431 25.3037L27.4701 21.6725M33.5407 22.3605L30.8825 19.7023M36.4838 17.2629L32.8526 16.2899M36.4837 11.3767L32.8525 12.3497M33.5407 6.2791L30.8824 8.9373M28.443 3.33594L27.4701 6.96719" stroke="#489157" stroke-width="1.95312" stroke-miterlimit="22.9256" stroke-linecap="round" stroke-linejoin="round"/>
</g>
<defs>
<clipPath id="clip0_783_3485">
<rect width="50" height="50" fill="white" transform="translate(0.499939 0.647949)"/>
</clipPath>
</defs>
</svg>
