<svg width="51" height="51" viewBox="0 0 51 51" fill="none" xmlns="http://www.w3.org/2000/svg">
<path d="M40.5 20.6479C46.0144 20.6479 50.5 16.1622 50.5 10.6479C50.5 5.13368 46.0143 0.647949 40.5 0.647949C36.4957 0.647949 33.0431 3.01899 31.4477 6.42639L28.7699 5.43795C28.8016 5.23295 28.8333 5.02784 28.8333 4.81462C28.8333 2.51722 26.9641 0.647949 24.6667 0.647949C22.3693 0.647949 20.5 2.51722 20.5 4.81462C20.5 7.11201 22.3693 8.98128 24.6667 8.98128C26.1592 8.98128 27.4608 8.18545 28.1966 7.00295L30.8699 7.98962C30.6351 8.83805 30.5 9.72628 30.5 10.6479C30.5 11.7396 30.6815 12.7878 31.0066 13.7721L21.8416 17.6565C20.1634 14.4837 16.8326 12.3146 13 12.3146C11.7581 12.3146 10.5732 12.5532 9.475 12.9681L7.1699 8.12399C8.17406 7.36222 8.83333 6.16878 8.83333 4.81462C8.83333 2.51722 6.96406 0.647949 4.66667 0.647949C2.36927 0.647949 0.5 2.51722 0.5 4.81462C0.5 7.11201 2.36927 8.98128 4.66667 8.98128C5.01333 8.98128 5.34583 8.92639 5.66844 8.84534L7.97073 13.6846C5.00313 15.4213 3 18.6346 3 22.3146C3 25.7713 4.76354 28.8222 7.43687 30.6187L5.9125 33.3587C5.51583 33.2338 5.10313 33.1479 4.66667 33.1479C2.36927 33.1479 0.5 35.0172 0.5 37.3146C0.5 39.612 2.36927 41.4813 4.66667 41.4813C6.96406 41.4813 8.83333 39.612 8.83333 37.3146C8.83333 36.0528 8.2576 34.9339 7.36927 34.1697L8.89677 31.4239C10.1501 31.9912 11.5368 32.3146 13 32.3146C15.2868 32.3146 17.3901 31.5346 19.0767 30.2377L22.3567 33.8462C20.6932 35.6328 19.6667 38.0198 19.6667 40.6479C19.6667 41.1578 19.7175 41.6546 19.7907 42.1438L15.9318 43.0596C15.2677 41.6396 13.8349 40.6479 12.1667 40.6479C9.86927 40.6479 8 42.5172 8 44.8146C8 47.112 9.86927 48.9813 12.1667 48.9813C14.4641 48.9813 16.3333 47.112 16.3333 44.8146C16.3333 44.7687 16.3207 44.7256 16.3199 44.6795L20.1717 43.7665C21.4851 47.7568 25.2417 50.6479 29.6667 50.6479C35.181 50.6479 39.6667 46.1622 39.6667 40.6479C39.6667 38.9382 39.2342 37.3281 38.474 35.9198L43.3691 32.737C44.1259 33.5037 45.1741 33.9813 46.3333 33.9813C48.6307 33.9813 50.5 32.112 50.5 29.8146C50.5 27.5172 48.6307 25.6479 46.3333 25.6479C44.0359 25.6479 42.1667 27.5172 42.1667 29.8146C42.1667 30.3529 42.2774 30.8644 42.4641 31.3372L37.5577 34.5269C36.5707 33.2572 35.2935 32.2428 33.8333 31.5688L37.9007 20.2932C38.7308 20.5169 39.5999 20.6479 40.5 20.6479ZM24.6667 7.31462C23.2885 7.31462 22.1667 6.19274 22.1667 4.81462C22.1667 3.43649 23.2885 2.31462 24.6667 2.31462C26.0448 2.31462 27.1667 3.43649 27.1667 4.81462C27.1667 6.19274 26.0448 7.31462 24.6667 7.31462ZM2.16667 4.81462C2.16667 3.43649 3.28854 2.31462 4.66667 2.31462C6.04479 2.31462 7.16667 3.43649 7.16667 4.81462C7.16667 6.19274 6.04479 7.31462 4.66667 7.31462C3.28854 7.31462 2.16667 6.19274 2.16667 4.81462ZM4.66667 39.8146C3.28854 39.8146 2.16667 38.6927 2.16667 37.3146C2.16667 35.9365 3.28854 34.8146 4.66667 34.8146C6.04479 34.8146 7.16667 35.9365 7.16667 37.3146C7.16667 38.6927 6.04479 39.8146 4.66667 39.8146ZM12.1667 47.3146C10.7885 47.3146 9.66667 46.1927 9.66667 44.8146C9.66667 43.4365 10.7885 42.3146 12.1667 42.3146C13.5448 42.3146 14.6667 43.4365 14.6667 44.8146C14.6667 46.1927 13.5448 47.3146 12.1667 47.3146ZM46.3333 27.3146C47.7115 27.3146 48.8333 28.4365 48.8333 29.8146C48.8333 31.1927 47.7115 32.3146 46.3333 32.3146C44.9552 32.3146 43.8333 31.1927 43.8333 29.8146C43.8333 28.4365 44.9552 27.3146 46.3333 27.3146ZM35.5924 17.3679C35.9643 15.4404 37.6635 13.9813 39.6667 13.9813H41.3333C43.3365 13.9813 45.0357 15.4404 45.4076 17.3679C44.0292 18.377 42.3359 18.9813 40.5 18.9813C38.6641 18.9813 36.9709 18.3771 35.5924 17.3679ZM40.5 12.3146C39.1219 12.3146 38 11.1927 38 9.81462C38 8.43649 39.1219 7.31462 40.5 7.31462C41.8781 7.31462 43 8.43649 43 9.81462C43 11.1927 41.8781 12.3146 40.5 12.3146ZM40.5 2.31462C45.0951 2.31462 48.8333 6.05285 48.8333 10.6479C48.8333 12.7313 48.059 14.6347 46.7899 16.0972C46.2059 14.5595 44.9885 13.3323 43.4716 12.7264C44.2094 11.9744 44.6667 10.9479 44.6667 9.81462C44.6667 7.51722 42.7974 5.64795 40.5 5.64795C38.2026 5.64795 36.3333 7.51722 36.3333 9.81462C36.3333 10.9478 36.7906 11.9744 37.5284 12.7264C36.0115 13.3323 34.7941 14.5595 34.2101 16.0972C32.941 14.6347 32.1667 12.7313 32.1667 10.6479C32.1667 6.05285 35.9049 2.31462 40.5 2.31462ZM4.66667 22.3146C4.66667 17.7195 8.4049 13.9813 13 13.9813C17.5951 13.9813 21.3333 17.7195 21.3333 22.3146C21.3333 24.4045 20.5542 26.3128 19.2784 27.7772C18.6967 26.2339 17.4768 25.0006 15.9557 24.3931C16.6926 23.6411 17.15 22.6145 17.15 21.4813C17.15 19.1839 15.2807 17.3146 12.9833 17.3146C10.6859 17.3146 8.81667 19.1839 8.81667 21.4813C8.81667 22.6145 9.27396 23.6411 10.0117 24.3931C8.49927 24.9962 7.28354 26.2188 6.6975 27.7503C5.43573 26.2896 4.66667 24.3923 4.66667 22.3146ZM10.4833 21.4813C10.4833 20.1032 11.6052 18.9813 12.9833 18.9813C14.3615 18.9813 15.4833 20.1032 15.4833 21.4813C15.4833 22.8594 14.3615 23.9813 12.9833 23.9813C11.6052 23.9813 10.4833 22.8594 10.4833 21.4813ZM8.07854 29.0236C8.45406 27.1014 10.1508 25.6479 12.15 25.6479H13.8167C15.8234 25.6479 17.526 27.112 17.8926 29.0456C16.5169 30.0487 14.8291 30.6479 13 30.6479C11.1575 30.6479 9.45917 30.0396 8.07854 29.0236ZM24.7452 47.3569C25.1207 45.4347 26.8175 43.9813 28.8167 43.9813H30.4833C32.4901 43.9813 34.1927 45.4453 34.5593 47.3789C33.1835 48.382 31.4957 48.9813 29.6667 48.9813C27.8242 48.9813 26.1258 48.3729 24.7452 47.3569ZM29.65 42.3146C28.2719 42.3146 27.15 41.1927 27.15 39.8146C27.15 38.4365 28.2719 37.3146 29.65 37.3146C31.0281 37.3146 32.15 38.4365 32.15 39.8146C32.15 41.1927 31.0281 42.3146 29.65 42.3146ZM38 40.6479C38 42.7378 37.2208 44.6462 35.9451 46.1106C35.3632 44.5672 34.1434 43.3339 32.6224 42.7264C33.3593 41.9744 33.8167 40.9478 33.8167 39.8146C33.8167 37.5172 31.9474 35.6479 29.65 35.6479C27.3526 35.6479 25.4833 37.5172 25.4833 39.8146C25.4833 40.9478 25.9406 41.9744 26.6783 42.7264C25.1659 43.3295 23.9502 44.5521 23.3642 46.0837C22.1024 44.623 21.3333 42.7257 21.3333 40.6479C21.3333 36.0528 25.0716 32.3146 29.6667 32.3146C34.2618 32.3146 38 36.0528 38 40.6479ZM32.2659 31.0027C31.4358 30.779 30.5668 30.6479 29.6667 30.6479C27.3799 30.6479 25.2766 31.4279 23.59 32.7248L20.31 29.1164C21.9734 27.3297 23 24.9427 23 22.3146C23 21.2229 22.8185 20.1747 22.4934 19.1904L31.6584 15.3061C32.6851 17.2471 34.3326 18.8047 36.3342 19.7271L32.2659 31.0027Z" fill="#489157"/>
</svg>
