<svg width="29" height="29" viewBox="0 0 29 29" fill="none" xmlns="http://www.w3.org/2000/svg">
<path fill-rule="evenodd" clip-rule="evenodd" d="M14.5929 6.14211C14.5912 6.14375 14.5912 6.14428 14.5922 6.14422L14.5942 6.14234L14.5929 6.14211ZM14.5929 6.14211L14.5956 6.13982C14.6043 6.13273 14.6007 6.13613 14.5942 6.14234H14.5929V6.14211ZM20.9701 15.1823C20.9578 15.2146 20.9431 15.2535 20.9706 15.1823H20.9701ZM19.1595 15.9973C19.1524 15.9777 19.155 15.9849 19.1595 15.9973V15.9973ZM18.5406 9.17264C18.5113 9.1785 18.5259 9.17598 18.5406 9.17311V9.17264ZM20.2767 5.2441C21.2014 5.69201 22.0285 6.31815 22.7105 7.08656C23.3926 7.85498 23.9162 8.75054 24.2512 9.72184C24.1813 9.65483 24.1078 9.59171 24.031 9.53275C23.8712 9.40845 23.6952 9.30646 23.508 9.22959C22.7614 8.94248 22.7614 9.20064 22.7614 9.76865C22.7631 9.82998 22.7594 9.89134 22.7502 9.95199C22.7395 10.0085 22.7168 10.062 22.6835 10.1089C22.6013 10.2112 22.5096 10.3056 22.4097 10.3907C22.2993 10.4839 22.1988 10.5883 22.1099 10.7021C21.8975 11.0074 21.9774 11.1821 22.0672 11.3782C22.0752 11.3895 22.0797 11.4027 22.0804 11.4165C22.081 11.4303 22.0777 11.4439 22.0709 11.4559C22.0492 11.5457 22.0195 11.6335 21.9821 11.7181C21.947 11.8028 21.9198 11.8635 21.8912 11.9275C21.765 12.1887 21.6641 12.4614 21.59 12.7419C21.5503 12.928 21.5251 13.1168 21.5145 13.3067C21.5046 13.475 21.4837 13.6425 21.4518 13.8081C21.387 14.1117 21.2414 14.4849 21.0958 14.8577L20.9705 15.1824H20.97C20.9801 15.1555 20.9886 15.1333 20.97 15.1824C20.8257 15.5592 20.6887 15.9163 20.5166 16.1114C20.453 16.1868 20.3718 16.2454 20.2801 16.2821C20.258 16.2925 20.2342 16.2988 20.2098 16.3007C20.163 16.2787 20.0877 16.068 20.0093 15.8486L19.9875 15.788H19.9857L19.957 15.7082H19.9574C19.9667 15.734 19.9568 15.7067 19.9488 15.6848L19.9574 15.7082H19.957C19.9336 15.6426 19.94 15.6604 19.9488 15.6845C19.8596 15.4387 19.7739 15.1957 19.7897 15.0107C19.8089 14.8853 19.8439 14.7629 19.8937 14.6463C19.958 14.4909 20.0049 14.3288 20.0333 14.1629C20.0577 13.9707 20.0438 13.7756 19.9923 13.5887C19.951 13.4374 19.8964 13.2901 19.8292 13.1483C19.7716 13.0223 19.7237 12.9272 19.6803 12.8415C19.6317 12.7451 19.5889 12.6603 19.5693 12.6124C19.538 12.5269 19.5178 12.4377 19.5092 12.347L19.5066 12.3288C19.4952 12.2364 19.4769 12.1449 19.4519 12.0552C19.4146 11.9114 19.3358 11.7817 19.2253 11.6823C19.1 11.578 18.9417 11.5215 18.7787 11.5231C18.6615 11.5223 18.5444 11.5324 18.4291 11.5532H18.4274L18.3766 11.5613C18.2323 11.5848 18.0609 11.612 17.9778 11.5782C17.9334 11.5549 17.8948 11.522 17.8647 11.4819C17.7948 11.3958 17.7332 11.3033 17.6805 11.2057C17.6127 11.0861 17.5517 10.9629 17.4977 10.8365C17.4628 10.758 17.4357 10.6763 17.4167 10.5925C17.4075 10.5332 17.412 10.4725 17.4299 10.4152C17.4378 10.3831 17.4454 10.3523 17.4509 10.3234C17.46 10.2759 17.4645 10.2361 17.4693 10.1933C17.477 10.1101 17.4953 10.0281 17.5238 9.94953C17.5671 9.8259 17.6248 9.70775 17.6955 9.5975C17.7447 9.519 17.8062 9.44897 17.8778 9.39014C18.0255 9.27582 18.2762 9.22607 18.5404 9.17334C18.5555 9.17035 18.571 9.16748 18.5404 9.17334V9.17287L18.6439 9.15166C18.8292 9.11387 18.9079 9.09664 18.9869 9.07936C19.2229 9.02773 19.4563 8.97664 19.6525 8.94863C19.7993 8.92766 19.9465 8.9167 20.0758 8.90691C20.2157 8.89654 20.3378 8.88734 20.441 8.86895C20.5724 8.84861 20.6982 8.80144 20.8105 8.73037C20.9332 8.65106 21.0264 8.53374 21.076 8.39639C21.1278 8.25653 21.1371 8.10453 21.1029 7.95939C21.071 7.82525 21.011 7.69941 20.9267 7.59025C20.834 7.47095 20.7256 7.36471 20.6045 7.27443C20.4839 7.18143 20.3523 7.10356 20.2128 7.04258C20.0817 6.98807 19.9432 6.95332 19.802 6.93945C19.6929 6.92934 19.5832 6.92717 19.4738 6.93295C19.3651 6.93699 19.2725 6.94191 19.1793 6.94918C19.0942 6.95586 18.9683 6.96781 18.7842 6.98662H18.7825L18.6764 6.99746C18.7079 6.96773 18.738 6.93661 18.7667 6.90418C18.8591 6.79768 18.9367 6.67925 18.9976 6.55209C19.0625 6.4177 19.1144 6.27739 19.1525 6.13309C19.1686 6.07268 19.1773 6.03523 19.1857 5.99908C19.1989 5.91332 19.2285 5.83087 19.2727 5.75621C19.3202 5.69447 19.3798 5.64307 19.4478 5.60516C19.5323 5.55641 19.6246 5.52271 19.7206 5.50555C19.8623 5.47088 19.9971 5.41263 20.1194 5.33322C20.1771 5.30047 20.2384 5.26566 20.2767 5.2441ZM14.9191 16.0913C14.9262 16.0682 14.9368 16.0463 14.9504 16.0262C14.9673 16.0142 14.9849 16.0033 15.0031 15.9934C15.1994 15.8927 15.3594 15.7335 15.4612 15.5379C15.5496 15.3654 15.6193 15.1839 15.6689 14.9966C15.7341 14.7623 15.7866 14.5248 15.8263 14.2849C15.8649 14.1005 15.8745 13.9111 15.8548 13.7237C15.8259 13.5154 15.7347 13.3207 15.5932 13.1652C15.4537 13.0146 15.3024 12.8753 15.1408 12.7488C14.9964 12.6337 14.8592 12.51 14.7299 12.3782C14.6212 12.2556 14.5219 12.1249 14.433 11.9872C14.1998 11.6042 13.8688 11.29 13.4741 11.0771C13.3974 11.0286 13.3236 10.9819 13.2608 10.9371C13.1807 10.8809 13.1067 10.8166 13.0398 10.7451C12.9796 10.6781 12.9251 10.6063 12.8767 10.5303C12.8227 10.4486 12.7737 10.3637 12.7302 10.2759C12.6893 10.1927 12.654 10.107 12.6244 10.0191C12.5956 9.93449 12.5746 9.84733 12.5619 9.75881C12.5531 9.7018 12.5518 9.64388 12.5581 9.58654C12.5643 9.54387 12.578 9.50263 12.5985 9.46473C12.6279 9.41245 12.6637 9.36403 12.7051 9.32059C12.7484 9.27312 12.7963 9.22684 12.8475 9.17762C12.9848 9.05041 13.1126 8.91333 13.2299 8.76746C13.2978 8.68104 13.3736 8.57152 13.4521 8.45809C13.5593 8.29341 13.6793 8.13741 13.811 7.9915C13.8921 7.91176 13.9778 7.83684 14.0677 7.76715C14.2395 7.6284 14.3933 7.5043 14.4999 7.31668C14.6563 7.04129 14.635 6.78693 14.6131 6.52408C14.6082 6.46496 14.6032 6.40531 14.6025 6.39301C14.5971 6.31777 14.5993 6.24217 14.609 6.16736C14.6765 6.17909 14.7422 6.19921 14.8046 6.22725C14.8541 6.24834 14.9086 6.27523 14.964 6.30254C15.2277 6.43285 15.5074 6.57084 15.8826 6.51729C16.1144 6.47678 16.3339 6.38398 16.5244 6.24594C16.7271 6.10521 16.9051 5.93193 17.0512 5.73312L17.0711 5.70535C17.2061 5.52446 17.2842 5.30746 17.2953 5.08203C17.299 4.96598 17.276 4.85063 17.228 4.74488C17.18 4.63914 17.1084 4.54584 17.0186 4.47219C17.7395 4.48311 18.4554 4.59432 19.1456 4.8026C19.1008 4.82346 19.0584 4.8456 19.0184 4.86904C18.8498 4.96626 18.703 5.09697 18.5869 5.25312C18.4382 5.45662 18.4 5.62004 18.3567 5.80566C18.3483 5.84265 18.3395 5.87953 18.3301 5.91629C18.3069 6.00664 18.2751 6.09457 18.2352 6.17891C18.2078 6.23739 18.1726 6.29197 18.1308 6.34121C18.0613 6.41063 17.9849 6.47273 17.9027 6.52654C17.8139 6.58745 17.7292 6.65399 17.6489 6.72576H17.6473C17.5263 6.83115 17.4316 6.96344 17.371 7.11201C17.341 7.19443 17.3299 7.28255 17.3386 7.36982C17.3496 7.48307 17.3976 7.58952 17.4753 7.6727V7.67439C17.5408 7.74513 17.6229 7.79855 17.7141 7.8299C17.9766 7.92365 18.4678 7.8732 18.8251 7.83658L18.8691 7.83207C19.0029 7.81842 19.1203 7.8077 19.2426 7.79814C19.3575 7.78918 19.4371 7.78437 19.5038 7.78191C19.5743 7.77803 19.645 7.77909 19.7154 7.78508C19.7731 7.79106 19.8297 7.80562 19.8831 7.82826C19.9574 7.86022 20.0274 7.90119 20.0917 7.95025C20.1293 7.97853 20.1649 8.00943 20.1982 8.04271C20.1437 8.04857 20.0817 8.05309 20.0145 8.05812H20.0128C19.8739 8.06844 19.7157 8.08021 19.533 8.10635C19.2954 8.14027 19.0525 8.19336 18.8075 8.24697C18.661 8.27896 18.5131 8.31143 18.4745 8.31922C18.2953 8.35566 18.5219 8.30891 18.3776 8.33768C18.0127 8.41027 17.6667 8.47918 17.3588 8.71766C17.213 8.83427 17.0873 8.97404 16.9868 9.13139C16.8779 9.29874 16.789 9.47831 16.722 9.66641C16.671 9.80616 16.6382 9.95188 16.6243 10.1C16.6216 10.1245 16.619 10.1473 16.6159 10.1635C16.6128 10.1797 16.6088 10.1959 16.6049 10.212C16.553 10.3875 16.5451 10.573 16.5817 10.7523C16.6125 10.8943 16.6575 11.033 16.7159 11.1661C16.7827 11.322 16.8582 11.4741 16.942 11.6215C17.0203 11.7663 17.1121 11.9034 17.2161 12.031C17.3341 12.1773 17.4861 12.2926 17.6588 12.3669C17.9584 12.4886 18.258 12.4405 18.5104 12.4L18.5612 12.3919C18.5948 12.3866 18.6262 12.3821 18.6545 12.3786C18.6583 12.4016 18.6617 12.4255 18.665 12.4486L18.6676 12.4667C18.6842 12.6266 18.7235 12.7832 18.7843 12.932C18.8266 13.0354 18.8712 13.1237 18.9219 13.2243C18.9671 13.3138 19.0172 13.4129 19.0575 13.5012C19.1037 13.598 19.1416 13.6985 19.1706 13.8018C19.1935 13.8812 19.2006 13.9644 19.1915 14.0465C19.1705 14.1505 19.1393 14.2521 19.0985 14.35C19.0187 14.5387 18.9658 14.7375 18.9412 14.9408C18.9096 15.3117 19.034 15.654 19.1588 15.9979C19.1801 16.0565 19.1669 16.0193 19.1593 15.9979L19.1868 16.0741L19.1854 16.0746L19.2071 16.1352C19.346 16.5238 19.4794 16.8969 19.8471 17.07C19.9608 17.1197 20.0833 17.1462 20.2073 17.1482C20.3314 17.1501 20.4546 17.1274 20.5698 17.0814C20.7947 16.9959 20.9949 16.856 21.1525 16.6743C21.4314 16.3587 21.5941 15.9339 21.7657 15.4856C21.8449 15.2788 21.7033 15.6439 21.8093 15.3696C21.842 15.2846 21.8346 15.3057 21.8884 15.1678C22.0466 14.7624 22.2051 14.3567 22.2842 13.9851C22.3247 13.7834 22.3512 13.5792 22.3636 13.3739C22.3716 13.2255 22.3902 13.0779 22.4191 12.9322C22.4816 12.7058 22.5646 12.4856 22.6671 12.2743C22.7081 12.1831 22.7466 12.0964 22.768 12.0449C22.8262 11.9099 22.8716 11.7697 22.9034 11.6262C22.9362 11.4861 22.9367 11.3404 22.9049 11.2C22.8976 11.171 22.8886 11.1425 22.8779 11.1146C22.9081 11.0853 22.9445 11.0521 22.9825 11.0172C23.129 10.8919 23.2621 10.7518 23.3796 10.5989C23.457 10.4896 23.5162 10.3685 23.5546 10.2402C23.6467 10.3147 23.7308 10.3986 23.8054 10.4905C24.0641 10.8109 24.3336 10.9007 24.5667 10.97C24.7725 12.1925 24.6824 13.4466 24.3038 14.6271C23.9252 15.8077 23.2693 16.8803 22.3909 17.7552C22.3152 17.7802 22.2384 17.809 22.1607 17.8415C22.1539 17.8444 22.1471 17.8474 22.1404 17.8507C21.6283 18.0509 21.2413 18.2219 20.8856 18.379C20.066 18.7409 19.4146 19.0286 18.1493 19.283C17.9235 19.2709 17.4732 19.2225 16.7982 19.1378C16.6942 19.1248 16.5858 19.111 16.473 19.0964C16.9589 18.9123 17.4308 18.6932 17.8851 18.4408C17.8919 18.4371 17.8985 18.4331 17.905 18.4291C18.648 17.9604 18.9377 17.3861 18.9434 16.8601C18.9459 16.6152 18.886 16.3736 18.7695 16.1582C18.6584 15.9529 18.5029 15.775 18.3144 15.6373C18.106 15.4799 17.8598 15.3801 17.6006 15.3481C17.3413 15.3161 17.0783 15.3529 16.8378 15.4549C16.5895 15.5359 16.3777 15.6089 16.1594 15.6842C15.7694 15.8189 15.3589 15.9601 14.9195 16.0917L14.9191 16.0913ZM13.2114 16.4904C13.168 16.1127 13.1207 15.7127 13.07 15.4223C13.0409 15.2371 12.9951 15.0548 12.9331 14.8779C12.882 14.7377 12.8122 14.6052 12.7254 14.4839C12.6791 14.4179 12.6266 14.3525 12.5718 14.284C12.4781 14.1736 12.3949 14.0548 12.323 13.9291C12.2632 13.8163 12.2153 13.6976 12.1801 13.5748C12.1469 13.4642 12.1265 13.35 12.1195 13.2347C12.1189 13.0937 12.1346 12.953 12.1664 12.8156C12.1828 12.7299 12.1986 12.6472 12.2088 12.5602C12.2521 12.2351 12.1816 11.905 12.0092 11.626C11.9112 11.4661 11.7962 11.3173 11.6663 11.1821C11.5311 11.0388 11.3834 10.9079 11.2248 10.791C11.0325 10.6549 10.8293 10.5346 10.6175 10.4313C10.5567 10.3999 10.4991 10.3703 10.434 10.3337C10.3666 10.2983 10.3039 10.2546 10.2473 10.2037C10.189 10.1453 10.1398 10.0785 10.1015 10.0054C9.9653 9.73312 9.84784 9.45184 9.74991 9.16355C10.2565 7.99434 11.042 6.96719 12.0377 6.17206C13.0334 5.37693 14.2089 4.83809 15.4612 4.60273C15.6405 4.7017 15.8235 4.78818 15.9932 4.8684C16.147 4.9361 16.2966 5.01316 16.441 5.09914C16.4235 5.14319 16.4002 5.18474 16.3719 5.22271L16.362 5.23713C16.273 5.35731 16.1647 5.46196 16.0415 5.54685C15.959 5.60938 15.8638 5.65313 15.7626 5.67506C15.6466 5.69164 15.4889 5.61377 15.3401 5.54029C15.273 5.50719 15.2069 5.47455 15.1374 5.44502C14.9698 5.3706 14.7903 5.32667 14.6073 5.31529C14.4105 5.30068 14.2153 5.35959 14.0594 5.48064C13.911 5.60791 13.8122 5.78347 13.7805 5.97641C13.7522 6.12798 13.7431 6.28252 13.7534 6.43637C13.7578 6.52051 13.7609 6.55748 13.764 6.5941C13.775 6.72576 13.7857 6.85338 13.7607 6.89732C13.6946 6.97579 13.6187 7.0455 13.5349 7.10475C13.4178 7.19584 13.3065 7.29411 13.2016 7.399C13.0363 7.5784 12.8862 7.77121 12.7528 7.97545C12.6896 8.06697 12.6284 8.15527 12.5606 8.24158C12.4677 8.3566 12.3666 8.46476 12.2581 8.5652C12.192 8.62889 12.1303 8.68824 12.0757 8.74807C11.9858 8.84475 11.9086 8.95249 11.846 9.06869C11.7791 9.19375 11.735 9.32969 11.7157 9.47018V9.47182C11.6988 9.6048 11.7 9.73946 11.7192 9.87213C11.7395 10.0127 11.7727 10.1511 11.8185 10.2856C11.8601 10.4098 11.9099 10.5312 11.9676 10.6488C12.0259 10.7687 12.0915 10.8848 12.1642 10.9964C12.2391 11.1116 12.3238 11.2203 12.4171 11.3212C12.5231 11.4358 12.6407 11.5392 12.768 11.6296C12.8476 11.6865 12.9328 11.7403 13.0213 11.7962C13.1851 11.8909 13.3379 12.0036 13.4768 12.1322C13.5702 12.2366 13.6551 12.3485 13.7304 12.4667C13.8428 12.64 13.9688 12.8042 14.1072 12.9576C14.2614 13.1155 14.4253 13.2636 14.5978 13.4013C14.7217 13.4982 14.8384 13.6039 14.9471 13.7177C14.9802 13.7513 15.0028 13.7938 15.0122 13.8401C15.0175 13.9423 15.009 14.0448 14.987 14.1448C14.9523 14.3533 14.9064 14.5597 14.8496 14.7632C14.8172 14.8891 14.7721 15.0113 14.7151 15.128C14.6821 15.1854 14.6327 15.2315 14.5733 15.2607C14.463 15.3182 14.3654 15.3974 14.2864 15.4936C14.2073 15.5897 14.1486 15.7008 14.1135 15.8202C14.0536 15.992 14.0031 16.1669 13.9623 16.3442C13.7136 16.4008 13.4631 16.4494 13.2112 16.4901L13.2114 16.4904ZM10.3499 16.4617C10.672 16.4895 10.9909 16.5472 11.3023 16.634C11.674 16.6373 12.028 16.6227 12.3666 16.5941C12.3249 16.2308 12.2793 15.8455 12.2311 15.5687C12.2105 15.4334 12.1781 15.3002 12.134 15.1706C12.1083 15.1003 12.0732 15.0339 12.0296 14.9731C11.9931 14.921 11.9521 14.8699 11.9093 14.8165C11.7823 14.6661 11.67 14.5037 11.574 14.3318C11.4862 14.1659 11.416 13.9914 11.3645 13.811C11.3125 13.6353 11.281 13.4541 11.2707 13.2712C11.265 13.0644 11.2852 12.8577 11.3309 12.6559C11.344 12.5878 11.3565 12.5221 11.3634 12.4638C11.3726 12.3976 11.3715 12.3304 11.3602 12.2646C11.3447 12.1917 11.3165 12.1221 11.277 12.059C11.2111 11.953 11.1341 11.8544 11.0472 11.7648C10.9477 11.6594 10.839 11.563 10.7223 11.477C10.5654 11.3676 10.4002 11.2707 10.2282 11.1872C10.1492 11.1465 10.0743 11.1079 10.018 11.0763C9.88864 11.0065 9.76882 10.9203 9.66155 10.8198C9.5409 10.7022 9.43896 10.5669 9.35927 10.4185C9.35267 10.4067 9.34608 10.3947 9.33952 10.3824C9.08395 11.411 9.04174 12.481 9.21552 13.5266C9.38929 14.5721 9.77535 15.5711 10.3499 16.4617ZM5.06646 20.241L8.30938 23.8868C9.92001 21.8775 11.0164 22.02 13.1353 22.2961C13.9926 22.4079 15.0332 22.5435 16.3662 22.5444C16.374 22.5444 16.3817 22.5444 16.3896 22.545V22.5444C16.7654 22.566 17.4253 22.3769 18.3692 21.9772C19.3581 21.5585 20.6317 20.9139 22.1901 20.0437L22.2018 20.0373V20.037C23.0901 19.5794 23.5074 19.141 23.6001 18.808C23.6197 18.7527 23.6205 18.6924 23.6025 18.6366C23.5821 18.5942 23.5479 18.5599 23.5056 18.5394C23.3022 18.4281 22.9412 18.4371 22.4903 18.6264C22.4767 18.6323 22.4629 18.6371 22.4493 18.6413C21.9887 18.8216 21.5928 18.9965 21.2287 19.1572C20.3515 19.5447 19.6565 19.8516 18.2679 20.1267C18.2254 20.135 18.1819 20.1368 18.139 20.1321C17.8796 20.1206 17.3983 20.0708 16.695 19.9827C15.9819 19.8932 14.9941 19.7587 13.7318 19.5789C13.6221 19.5636 13.5227 19.506 13.4548 19.4185C13.3869 19.331 13.3558 19.2204 13.3681 19.1103C13.3805 19.0002 13.4353 18.8992 13.521 18.8289C13.6066 18.7587 13.7163 18.7246 13.8267 18.7339C14.322 18.776 14.8953 18.6926 15.4814 18.5284C16.1698 18.3299 16.8335 18.0538 17.4596 17.7053C17.9146 17.416 18.0918 17.1118 18.0946 16.8533C18.0951 16.7511 18.0697 16.6505 18.0206 16.5608C17.9696 16.467 17.8982 16.3858 17.8118 16.323C17.7212 16.2528 17.6135 16.2081 17.4998 16.1936C17.386 16.179 17.2705 16.1951 17.1651 16.2402C17.1483 16.2478 17.131 16.2543 17.1133 16.2597C16.9224 16.3218 16.6829 16.4045 16.4357 16.4897C15.0705 16.9604 13.466 17.5134 11.2347 17.4826C11.1976 17.4821 11.1608 17.4769 11.125 17.4669V17.4676C10.1107 17.1805 9.21806 17.2616 8.26052 17.7326C7.32149 18.1946 6.30858 19.0258 5.06716 20.2413L5.06646 20.241ZM6.00068 27.9277L0.775343 22.0534C0.73819 22.0116 0.709627 21.9629 0.691287 21.9101C0.672946 21.8573 0.665186 21.8014 0.668451 21.7456C0.671716 21.6898 0.685941 21.6352 0.710313 21.5849C0.734686 21.5346 0.76873 21.4896 0.810499 21.4524L3.47007 19.0867C3.55442 19.0117 3.66512 18.9732 3.77782 18.9798C3.89051 18.9864 3.99598 19.0375 4.07101 19.1219L4.50126 19.6055C5.79325 18.3434 6.86347 17.4723 7.88394 16.9702C8.35236 16.7327 8.85545 16.5709 9.3745 16.4909C8.60246 15.1243 8.21753 13.573 8.26112 12.004C8.30471 10.435 8.77517 8.90755 9.6219 7.58591C10.4686 6.26426 11.6596 5.19841 13.0668 4.50299C14.4739 3.80756 16.044 3.50886 17.6082 3.639C19.1725 3.76913 20.6716 4.32319 21.9445 5.2416C23.2174 6.16 24.2159 7.408 24.8326 8.8514C25.4492 10.2948 25.6608 11.879 25.4445 13.4336C25.2282 14.9883 24.5923 16.4546 23.605 17.6748C23.7118 17.7017 23.8149 17.7418 23.9118 17.7942C24.1255 17.9061 24.2939 18.0887 24.3882 18.3107C24.4805 18.5416 24.4914 18.797 24.4192 19.0348C24.2703 19.5696 23.717 20.2133 22.5913 20.7932C21.015 21.6729 19.7175 22.3284 18.6989 22.7599C17.6327 23.2114 16.8475 23.4226 16.3434 23.3935C14.9629 23.3911 13.9013 23.2529 13.0259 23.1386C11.1941 22.8999 10.2596 22.7784 8.88372 24.5321L9.29663 24.9963C9.37165 25.0806 9.41009 25.1913 9.4035 25.304C9.39691 25.4167 9.34582 25.5222 9.26148 25.5972L6.60191 27.9629C6.51756 28.0379 6.40687 28.0763 6.29419 28.0698C6.1815 28.0632 6.07605 28.0121 6.00103 27.9277H6.00068ZM1.69403 21.8055L3.71769 20.0054L4.09819 20.4331C4.12958 20.491 4.17389 20.5408 4.22769 20.5787L8.3773 25.2438L6.3537 27.0437L1.69415 21.8055H1.69403ZM6.7788 25.4816L6.82046 25.422C6.88495 25.3298 6.91015 25.2157 6.89051 25.1048C6.87086 24.994 6.80799 24.8955 6.71572 24.831C6.62346 24.7665 6.50935 24.7413 6.3985 24.7609C6.28765 24.7806 6.18915 24.8434 6.12466 24.9357L6.083 24.9953C6.05107 25.041 6.02845 25.0925 6.01643 25.1469C6.00441 25.2014 6.00323 25.2576 6.01295 25.3125C6.0326 25.4234 6.09547 25.5219 6.18774 25.5864C6.28 25.6509 6.39411 25.676 6.50496 25.6564C6.55984 25.6467 6.61228 25.6262 6.65926 25.5963C6.70625 25.5663 6.74687 25.5273 6.7788 25.4816ZM7.37294 12.5933C6.91677 13.8114 5.88417 14.8906 4.27515 15.8311C4.22229 15.8667 4.1621 15.8901 4.09901 15.8994C4.03593 15.9088 3.97155 15.9038 3.91062 15.885C3.8497 15.8661 3.79378 15.8339 3.74698 15.7905C3.70018 15.7472 3.6637 15.6939 3.64023 15.6347C2.99517 14.0024 2.72441 12.6054 2.96915 11.3546C3.21765 10.0848 3.98446 8.99809 5.41099 8.01277C5.42486 8.00233 5.43934 7.99273 5.45435 7.984L5.87804 7.7385C6.49606 6.22786 7.41819 4.86048 8.58711 3.72135C9.75603 2.58222 11.1467 1.69568 12.6728 1.11685C14.1989 0.538017 15.8278 0.279256 17.4581 0.35665C19.0884 0.434044 20.6854 0.845939 22.1498 1.56673C23.6142 2.28753 24.9147 3.30182 25.9704 4.54655C27.0262 5.79129 27.8146 7.23987 28.2868 8.80227C28.7589 10.3647 28.9047 12.0075 28.715 13.6286C28.5253 15.2497 28.0041 16.8144 27.184 18.2256C27.1269 18.3219 27.034 18.3918 26.9257 18.42C26.8173 18.4483 26.7022 18.4327 26.6053 18.3766C26.5084 18.3204 26.4375 18.2283 26.4081 18.1203C26.3787 18.0122 26.3931 17.8969 26.4482 17.7995C27.207 16.491 27.689 15.0408 27.8645 13.5385C28.04 12.0362 27.9052 10.5139 27.4684 9.06586C27.0317 7.6178 26.3023 6.27482 25.3255 5.12008C24.3486 3.96535 23.1451 3.02346 21.7895 2.35274C20.4338 1.68202 18.9549 1.29675 17.4443 1.22079C15.9338 1.14483 14.4237 1.37981 13.0076 1.91116C11.5915 2.44251 10.2996 3.25892 9.21184 4.30984C8.12409 5.36075 7.26367 6.6238 6.68388 8.02074C6.71458 8.07266 6.74292 8.1217 6.7689 8.16787C6.83027 8.27697 6.89157 8.39205 6.95282 8.51311C7.69923 9.98803 7.83927 11.3481 7.37294 12.5933V12.5933ZM4.25376 14.8473C5.45564 14.0738 6.23015 13.2238 6.5773 12.297C6.93483 11.3423 6.84167 10.2801 6.2978 9.11029C5.99668 10.1297 5.84421 11.1872 5.84511 12.2502C5.84379 12.3623 5.79832 12.4694 5.71855 12.5483C5.63878 12.6271 5.53114 12.6713 5.41899 12.6713C5.30683 12.6713 5.19919 12.6271 5.11942 12.5483C5.03965 12.4694 4.99418 12.3623 4.99286 12.2502C4.99206 11.1724 5.13753 10.0996 5.42528 9.06096C4.49558 9.81066 3.98153 10.6143 3.80476 11.5179C3.61755 12.4746 3.79685 13.569 4.25376 14.8473Z" fill="#497E54"/>
</svg>
